{"glyphs":{"0":{"ha":853,"x_min":53,"x_max":800,"o":"m 649 42 q 547 -5 600 8 q 417 -18 493 -18 q 278 4 342 -18 q 162 81 215 26 q 81 238 108 135 q 53 489 53 340 q 81 740 53 638 q 162 896 108 842 q 278 972 215 950 q 417 994 342 994 q 547 981 493 994 q 649 934 600 968 q 731 844 697 900 q 800 489 800 725 q 649 42 800 149 m 343 789 q 328 777 343 789 q 294 693 313 765 q 275 462 275 621 q 311 233 275 303 q 428 164 347 164 q 544 232 508 164 q 579 490 579 300 q 542 746 579 679 q 426 813 506 813 q 343 789 374 813 z "},"1":{"ha":769,"x_min":29,"x_max":757,"o":"m 88 0 l 88 186 l 328 185 l 336 743 l 328 743 l 167 581 l 29 724 l 339 988 l 546 974 l 546 183 l 757 186 l 757 0 l 88 0 z "},"2":{"ha":814,"x_min":40,"x_max":756,"o":"m 408 994 q 644 925 553 994 q 735 735 735 856 q 685 572 735 654 q 567 408 636 490 q 368 186 449 267 l 368 178 l 756 186 l 756 0 l 56 0 l 56 157 q 290 404 158 257 q 469 620 422 551 q 517 742 517 689 q 433 803 517 803 q 290 772 376 803 q 126 693 204 740 l 40 854 q 203 949 100 903 q 408 994 306 994 z "},"3":{"ha":758,"x_min":-8,"x_max":703,"o":"m 372 171 q 453 196 431 171 q 476 289 476 221 q 442 390 476 357 q 331 422 407 422 l 147 422 l 147 603 q 394 633 350 617 q 450 716 449 661 q 431 789 451 771 q 327 807 411 807 q 68 786 243 807 l 43 960 q 317 994 171 994 q 672 731 672 994 q 568 531 672 593 l 568 522 q 703 289 703 458 q 618 67 703 153 q 353 -18 533 -18 q 178 6 268 -18 q 39 56 88 31 l -8 81 l 57 236 q 372 171 253 171 z "},"4":{"ha":803,"x_min":10,"x_max":765,"o":"m 674 718 l 674 379 l 765 382 l 765 194 l 674 194 l 675 0 l 460 0 l 460 194 l 10 194 l 10 333 l 249 996 l 456 969 l 239 374 l 239 365 l 461 374 l 508 718 l 674 718 z "},"5":{"ha":767,"x_min":7,"x_max":718,"o":"m 675 976 l 675 796 l 343 801 l 315 617 q 689 451 617 599 q 718 307 718 392 q 625 68 718 154 q 369 -18 532 -18 q 192 9 282 -18 q 54 64 101 36 l 7 92 l 71 250 q 389 171 271 171 q 466 192 438 171 q 494 297 494 213 q 464 406 494 382 q 242 439 424 439 l 78 436 l 163 976 l 675 976 z "},"6":{"ha":822,"x_min":53,"x_max":769,"o":"m 769 317 q 769 236 769 317 q 676 69 769 156 q 411 -18 583 -18 q 146 94 239 -18 q 53 465 53 207 q 178 892 53 774 q 310 971 239 947 q 456 994 381 994 q 693 958 593 994 l 728 946 l 681 776 q 454 808 536 808 q 340 781 372 808 q 282 617 296 744 q 383 621 347 621 q 670 549 571 621 q 769 317 769 478 m 321 189 q 426 164 351 164 q 528 196 500 164 q 556 306 556 228 q 526 411 556 383 q 413 439 497 439 l 276 429 l 276 360 q 321 189 276 221 z "},"7":{"ha":710,"x_min":3,"x_max":708,"o":"m 3 976 l 708 976 l 708 850 l 289 -12 l 61 6 l 472 794 l 472 803 l 3 792 l 3 976 z "},"8":{"ha":807,"x_min":35,"x_max":771,"o":"m 75 722 q 75 786 75 722 q 160 922 75 850 q 403 994 246 994 q 646 921 561 994 q 731 731 731 847 q 607 506 731 590 q 722 415 674 475 q 771 272 771 354 q 669 67 771 153 q 398 -18 568 -18 q 131 72 228 -18 q 35 283 35 161 q 75 418 35 357 q 176 518 115 479 q 75 722 75 593 m 551 271 q 511 358 551 325 q 364 424 471 392 q 282 372 310 404 q 254 283 254 340 q 403 165 254 165 q 551 271 551 165 m 517 717 q 402 824 517 824 q 288 731 288 824 q 318 649 288 682 q 421 588 349 615 q 517 717 517 628 z "},"9":{"ha":819,"x_min":53,"x_max":767,"o":"m 397 358 q 144 434 236 358 q 53 665 53 510 q 144 908 53 821 q 407 994 236 994 q 672 881 578 994 q 767 506 767 768 q 678 113 767 243 q 392 -18 590 -18 q 245 5 325 -18 q 119 50 165 28 l 74 72 l 133 235 q 383 168 300 168 q 490 189 465 168 q 540 369 532 224 q 397 358 460 358 m 492 794 q 391 813 464 813 q 293 778 318 813 q 268 672 268 744 q 291 571 268 600 q 392 542 314 542 q 542 561 447 542 q 492 794 540 763 z "},"\u0001":{"ha":0,"x_min":0,"x_max":0,"o":""}," ":{"ha":333,"x_min":0,"x_max":0,"o":""},"!":{"ha":407,"x_min":83,"x_max":326,"o":"m 296 282 l 110 282 l 88 976 l 321 976 l 296 282 m 83 0 l 83 186 l 326 186 l 326 0 l 83 0 z "},"\"":{"ha":568,"x_min":47,"x_max":521,"o":"m 47 1015 l 221 1015 l 221 944 l 194 622 l 71 622 l 47 944 l 47 1015 m 347 1015 l 521 1015 l 521 944 l 494 622 l 371 622 l 347 944 l 347 1015 z "},"#":{"ha":822,"x_min":4,"x_max":801,"o":"m 4 228 l 4 411 l 142 411 l 164 556 l 53 556 l 53 739 l 192 739 l 228 965 l 408 965 l 372 739 l 511 739 l 547 965 l 728 965 l 692 739 l 801 739 l 801 556 l 664 556 l 640 411 l 753 411 l 753 228 l 611 228 l 576 0 l 397 0 l 432 228 l 292 228 l 257 0 l 78 0 l 113 228 l 4 228 m 344 556 l 321 411 l 461 411 l 483 556 l 344 556 z "},"$":{"ha":756,"x_min":19,"x_max":708,"o":"m 453 -161 l 281 -161 l 281 -12 q 151 16 217 -4 q 19 68 86 36 q 28 97 22 79 q 74 242 38 122 q 388 174 244 174 q 457 192 428 174 q 486 267 486 210 q 445 354 486 324 q 328 415 404 385 q 213 467 253 446 q 129 522 174 488 q 40 721 40 594 q 102 891 40 819 q 281 985 164 963 l 281 1115 l 453 1115 l 453 990 q 674 949 554 982 l 639 771 q 360 803 472 803 q 289 785 314 803 q 264 730 264 768 q 288 667 264 692 q 340 630 313 643 q 431 590 368 617 q 532 544 494 564 q 617 489 569 525 q 708 293 708 417 q 639 92 708 169 q 453 -8 569 15 l 453 -161 z "},"%":{"ha":1143,"x_min":43,"x_max":1100,"o":"m 389 -12 l 197 -12 l 513 564 l 731 1018 l 921 1018 l 636 476 l 389 -12 m 43 778 q 43 839 43 778 q 111 956 43 899 q 278 1014 179 1014 q 447 956 378 1014 q 515 778 515 899 q 447 600 515 658 q 279 542 378 542 q 112 600 181 542 q 43 778 43 658 m 628 219 q 628 279 628 219 q 696 397 628 339 q 863 454 764 454 q 1031 397 963 454 q 1100 219 1100 339 q 1031 40 1100 99 q 864 -18 963 -18 q 697 40 765 -18 q 628 219 628 99 m 351 778 q 351 815 351 778 q 279 853 351 853 q 207 778 207 853 q 279 703 207 703 q 351 778 351 703 m 936 218 q 936 256 936 218 q 864 293 936 293 q 792 218 792 293 q 864 143 792 143 q 936 218 936 143 z "},"&":{"ha":975,"x_min":24,"x_max":968,"o":"m 693 108 q 384 -18 551 -18 q 120 72 217 -18 q 24 279 24 163 q 201 538 24 447 q 94 737 94 624 q 176 922 94 850 q 406 994 258 994 q 629 922 553 994 q 706 746 706 849 q 571 528 706 615 q 706 413 638 481 q 778 567 743 479 l 963 515 q 831 267 913 389 q 968 -11 914 144 l 754 -18 q 693 108 738 31 m 247 273 q 247 245 247 273 q 283 183 247 218 q 378 147 319 147 q 494 178 436 147 q 596 260 551 210 q 392 438 500 372 q 287 370 326 413 q 247 273 247 328 m 399 835 q 313 747 313 835 q 399 624 313 668 q 486 749 486 668 q 465 810 486 786 q 399 835 443 835 z "},"'":{"ha":296,"x_min":61,"x_max":235,"o":"m 61 1021 l 235 1021 l 235 950 l 208 628 l 85 628 l 61 950 l 61 1021 z "},"(":{"ha":485,"x_min":65,"x_max":472,"o":"m 472 1007 q 333 807 381 944 q 285 478 285 669 q 332 151 285 288 q 472 -50 379 15 l 381 -172 q 154 62 243 -97 q 65 478 65 221 q 381 1129 65 956 l 472 1007 z "},")":{"ha":485,"x_min":13,"x_max":419,"o":"m 419 478 q 331 62 419 221 q 104 -172 242 -97 l 13 -50 q 153 151 106 15 q 200 478 200 288 q 152 807 200 669 q 13 1007 104 944 l 104 1129 q 419 478 419 956 z "},"*":{"ha":578,"x_min":19,"x_max":558,"o":"m 203 1007 l 375 1007 l 375 978 l 349 839 l 478 904 l 507 913 l 558 749 l 529 740 l 375 722 l 500 615 l 521 594 l 389 482 l 371 506 l 288 647 l 201 504 l 183 481 l 57 593 l 76 614 l 197 722 l 47 740 l 19 749 l 69 914 l 100 904 l 229 839 l 203 978 l 203 1007 z "},"+":{"ha":875,"x_min":42,"x_max":833,"o":"m 42 315 l 42 499 l 343 499 l 343 803 l 529 803 l 529 499 l 833 499 l 833 315 l 529 315 l 529 6 l 343 6 l 343 315 l 42 315 z "},",":{"ha":415,"x_min":61,"x_max":314,"o":"m 106 -1 l 106 183 l 314 183 l 314 57 q 186 -243 314 -150 l 61 -182 q 106 -1 106 -117 z "},"-":{"ha":425,"x_min":33,"x_max":392,"o":"m 33 363 l 33 546 l 392 546 l 392 363 l 33 363 z "},".":{"ha":393,"x_min":75,"x_max":318,"o":"m 75 0 l 75 190 l 318 190 l 318 0 l 75 0 z "},"/":{"ha":681,"x_min":-25,"x_max":681,"o":"m 176 -136 l -25 -136 l 254 463 l 478 976 l 681 976 l 408 390 l 176 -136 z "},":":{"ha":468,"x_min":113,"x_max":356,"o":"m 113 0 l 113 190 l 356 190 l 356 0 l 113 0 m 113 578 l 113 768 l 356 768 l 356 578 l 113 578 z "},";":{"ha":476,"x_min":101,"x_max":374,"o":"m 146 -1 l 146 183 l 354 183 l 354 57 q 226 -243 354 -150 l 101 -182 q 146 -1 146 -117 m 131 590 l 131 781 l 374 781 l 374 590 l 131 590 z "},"<":{"ha":931,"x_min":74,"x_max":883,"o":"m 74 485 l 883 817 l 883 614 l 375 415 l 375 407 l 883 208 l 883 6 l 74 338 l 74 485 z "},"=":{"ha":901,"x_min":42,"x_max":860,"o":"m 42 515 l 42 700 l 860 700 l 860 515 l 42 515 m 42 110 l 42 294 l 860 294 l 860 110 l 42 110 z "},">":{"ha":931,"x_min":74,"x_max":883,"o":"m 74 817 l 883 485 l 883 338 l 74 6 l 74 208 l 582 407 l 582 415 l 74 614 l 74 817 z "},"?":{"ha":685,"x_min":13,"x_max":674,"o":"m 168 282 l 168 308 q 225 478 168 415 q 277 528 256 511 q 340 575 299 546 q 451 721 451 650 q 425 783 451 764 q 347 803 399 803 q 124 758 257 803 l 79 744 l 13 908 q 165 968 69 942 q 338 994 261 994 q 580 917 486 994 q 674 721 674 840 q 611 553 674 618 q 501 460 556 496 q 428 408 446 424 q 390 360 410 393 q 367 282 371 326 l 168 282 m 147 0 l 147 186 l 390 186 l 390 0 l 147 0 z "},"@":{"ha":1132,"x_min":61,"x_max":1065,"o":"m 785 149 q 703 181 729 149 q 667 275 676 213 l 661 275 q 494 149 589 149 q 381 208 432 149 q 321 455 321 282 q 378 694 321 628 q 560 761 436 761 q 792 722 647 761 q 789 417 789 518 q 791 295 789 315 q 804 275 793 275 q 890 347 842 275 q 939 522 939 419 q 844 761 939 674 q 579 849 750 849 q 299 746 408 849 q 190 451 190 643 q 299 148 190 258 q 567 38 408 38 q 699 56 603 38 l 714 -61 q 556 -85 644 -85 q 378 -51 467 -85 q 219 45 290 -18 q 104 211 147 108 q 61 443 61 314 q 107 677 61 572 q 228 844 153 782 q 581 974 382 974 q 923 853 781 974 q 1065 528 1065 732 q 976 260 1065 372 q 785 149 888 149 m 508 290 q 602 398 557 290 q 647 617 647 506 q 557 625 604 625 q 496 607 510 625 q 472 463 472 575 q 508 290 472 290 z "},"A":{"ha":796,"x_min":-15,"x_max":804,"o":"m 206 0 l -15 0 l 264 976 l 525 976 l 804 0 l 583 0 l 528 217 l 261 217 l 206 0 m 486 400 l 399 776 l 390 776 l 303 400 l 486 400 z "},"B":{"ha":910,"x_min":115,"x_max":824,"o":"m 468 994 q 799 718 799 994 q 765 592 799 642 q 685 518 732 542 l 685 510 q 824 300 824 451 q 714 44 824 118 q 478 -18 618 -18 q 115 8 338 -18 l 122 457 l 115 975 q 468 994 328 994 m 336 165 q 485 157 419 157 q 574 189 550 157 q 597 294 597 221 q 563 394 597 367 q 463 422 529 422 l 335 422 l 336 165 m 333 592 l 474 592 q 554 618 532 592 q 576 708 576 644 q 551 798 576 772 q 464 824 525 824 l 333 818 l 333 592 z "},"C":{"ha":858,"x_min":69,"x_max":810,"o":"m 747 782 q 483 803 575 803 q 360 778 392 803 q 297 475 297 728 q 317 286 297 360 q 367 190 338 213 q 456 168 397 168 q 586 187 515 168 q 747 242 657 206 l 810 78 q 763 51 793 67 q 642 8 732 35 q 464 -18 551 -18 q 174 101 278 -18 q 69 479 69 221 q 147 844 69 724 q 238 935 183 901 q 352 982 293 969 q 476 994 411 994 q 630 984 542 994 q 771 960 718 974 l 747 782 z "},"D":{"ha":935,"x_min":115,"x_max":865,"o":"m 447 -18 q 115 0 353 -18 l 115 975 q 456 994 351 994 q 634 967 561 994 q 750 897 707 940 q 819 786 793 853 q 865 500 865 675 q 756 103 865 224 q 447 -18 646 -18 m 332 176 q 465 169 390 169 q 569 196 540 169 q 633 494 633 249 q 574 785 633 740 q 467 808 543 808 l 332 800 l 332 176 z "},"E":{"ha":765,"x_min":115,"x_max":701,"o":"m 115 0 l 115 976 l 701 976 l 701 790 l 332 794 l 326 586 l 667 586 l 667 403 l 326 403 l 332 183 l 701 186 l 701 0 l 115 0 z "},"F":{"ha":746,"x_min":115,"x_max":701,"o":"m 657 582 l 657 399 l 326 399 l 333 0 l 115 0 l 115 976 l 701 976 l 701 788 l 331 792 l 326 582 l 657 582 z "},"G":{"ha":908,"x_min":69,"x_max":810,"o":"m 356 776 q 297 491 297 724 q 358 197 297 258 q 476 164 394 164 q 597 172 558 164 l 597 382 l 456 392 l 456 549 l 810 549 l 810 46 q 658 1 750 21 q 489 -18 565 -18 q 355 -6 413 -18 q 242 40 297 6 q 150 128 188 74 q 69 492 69 250 q 192 900 69 794 q 328 974 254 954 q 532 994 403 994 q 808 958 661 994 l 783 782 q 491 803 596 803 q 356 776 386 803 z "},"H":{"ha":981,"x_min":115,"x_max":865,"o":"m 115 0 l 115 976 l 333 976 l 329 589 l 651 589 l 647 976 l 865 976 l 865 0 l 647 0 l 651 403 l 329 403 l 333 0 l 115 0 z "},"I":{"ha":450,"x_min":115,"x_max":335,"o":"m 331 542 l 335 0 l 115 0 l 121 450 l 115 976 l 335 976 l 331 542 z "},"J":{"ha":504,"x_min":-29,"x_max":389,"o":"m 389 976 l 389 343 q 104 -18 389 -18 q -29 -3 42 -18 l -8 182 q 97 168 61 168 q 144 178 132 168 q 171 340 171 200 l 171 976 l 389 976 z "},"K":{"ha":922,"x_min":115,"x_max":957,"o":"m 686 0 l 338 513 l 651 976 l 917 976 l 567 519 l 567 511 l 957 0 l 686 0 m 335 976 l 335 0 l 115 0 l 119 497 l 115 976 l 335 976 z "},"L":{"ha":671,"x_min":115,"x_max":686,"o":"m 115 0 l 115 976 l 333 976 l 326 188 l 686 190 l 686 0 l 115 0 z "},"M":{"ha":1171,"x_min":110,"x_max":1061,"o":"m 696 225 l 476 225 l 326 732 l 318 732 l 326 0 l 110 0 l 143 976 l 422 976 l 581 431 l 589 431 l 746 976 l 1024 976 l 1061 0 l 844 0 l 850 732 l 842 732 l 696 225 z "},"N":{"ha":994,"x_min":115,"x_max":882,"o":"m 115 976 l 388 976 l 689 283 l 697 283 l 681 976 l 882 976 l 882 0 l 610 0 l 308 693 l 300 693 l 317 0 l 115 0 l 115 976 z "},"O":{"ha":972,"x_min":69,"x_max":903,"o":"m 648 4 q 613 -7 648 4 q 486 -18 578 -18 q 324 4 394 -18 q 194 81 254 26 q 69 490 69 192 q 242 935 69 826 q 486 994 335 994 q 822 844 724 994 q 903 490 903 722 q 778 81 903 192 q 648 4 718 26 m 376 781 q 357 769 376 781 q 317 690 338 758 q 296 488 296 621 q 317 286 296 356 q 377 195 339 217 q 486 174 415 174 q 594 196 557 174 q 676 488 676 243 q 597 781 676 735 q 486 803 558 803 q 376 781 414 803 z "},"P":{"ha":863,"x_min":115,"x_max":811,"o":"m 115 975 q 493 994 339 994 q 729 908 647 994 q 811 651 811 821 q 701 364 811 446 q 464 294 607 294 l 333 299 l 333 0 l 115 0 l 121 456 l 115 975 m 556 799 q 464 818 536 818 q 333 811 392 818 l 333 488 q 463 478 392 478 q 560 502 533 478 q 586 649 586 526 q 556 799 586 771 z "},"Q":{"ha":1004,"x_min":69,"x_max":967,"o":"m 592 -8 q 463 -18 539 -18 q 319 5 388 -18 q 192 82 250 28 q 101 239 133 136 q 69 490 69 342 q 101 742 69 639 q 194 898 133 844 q 324 973 254 951 q 487 994 394 994 q 649 972 579 994 q 779 897 719 950 q 903 489 903 786 q 783 94 903 232 l 783 86 l 967 43 l 908 -132 l 592 -8 m 376 781 q 357 769 376 781 q 317 690 338 758 q 296 488 296 621 q 317 286 296 356 q 377 195 339 217 q 486 174 415 174 q 594 194 557 174 q 676 488 676 240 q 597 781 676 733 q 487 803 560 803 q 376 781 414 803 z "},"R":{"ha":965,"x_min":115,"x_max":890,"o":"m 851 669 q 653 378 851 449 l 653 369 l 890 0 l 638 0 l 458 347 l 333 350 l 333 0 l 115 0 l 121 453 l 115 975 q 485 994 446 994 q 851 669 851 994 m 333 531 q 499 521 428 521 q 599 555 571 521 q 626 685 626 589 q 592 804 626 782 q 481 821 567 821 q 333 813 396 821 l 333 531 z "},"S":{"ha":792,"x_min":46,"x_max":735,"o":"m 386 803 q 315 785 340 803 q 290 726 290 768 q 326 658 290 685 q 404 610 361 631 q 481 576 447 590 q 533 552 515 561 q 583 526 551 543 q 631 495 614 510 q 672 458 649 481 q 706 411 694 435 q 735 283 735 351 q 638 65 735 149 q 386 -18 542 -18 q 222 3 307 -18 q 92 47 138 25 l 46 68 q 56 97 49 79 q 100 242 64 122 q 414 174 271 174 q 483 192 454 174 q 513 275 513 210 q 496 322 513 306 q 468 347 479 338 q 436 367 457 356 q 400 385 415 378 q 284 440 368 400 q 163 510 200 479 q 67 713 67 585 q 156 917 67 840 q 411 994 246 994 q 543 983 471 994 q 700 949 615 972 l 665 771 q 386 803 499 803 z "},"T":{"ha":717,"x_min":-22,"x_max":738,"o":"m -22 976 l 738 976 l 738 788 l 460 792 l 464 0 l 246 0 l 250 792 l -22 788 l -22 976 z "},"U":{"ha":975,"x_min":115,"x_max":860,"o":"m 642 976 l 860 976 l 860 440 q 769 82 860 182 q 488 -18 678 -18 q 207 81 299 -18 q 115 429 115 179 l 115 976 l 333 976 l 333 465 q 348 272 333 335 q 393 190 363 210 q 488 172 424 171 q 583 191 553 172 q 627 271 613 210 q 642 465 642 332 l 642 976 z "},"V":{"ha":846,"x_min":8,"x_max":824,"o":"m 8 976 l 238 976 l 411 204 l 419 204 l 593 976 l 824 976 l 547 0 l 281 0 l 8 976 z "},"W":{"ha":1139,"x_min":22,"x_max":1092,"o":"m 429 744 l 685 744 l 793 226 l 801 226 l 875 976 l 1092 976 l 947 0 l 675 0 l 561 549 l 553 549 l 439 0 l 167 0 l 22 976 l 239 976 l 313 226 l 321 226 l 429 744 z "},"X":{"ha":861,"x_min":-10,"x_max":869,"o":"m -10 0 l 289 496 l 3 976 l 247 976 l 426 631 l 435 631 l 611 976 l 856 976 l 571 496 l 869 0 l 621 0 l 436 354 l 428 354 l 239 0 l -10 0 z "},"Y":{"ha":806,"x_min":-6,"x_max":808,"o":"m 290 0 l 294 351 l -6 976 l 226 976 l 397 529 l 406 529 l 576 976 l 808 976 l 508 351 l 511 0 l 290 0 z "},"Z":{"ha":804,"x_min":33,"x_max":768,"o":"m 33 0 l 33 172 l 503 793 l 503 803 l 63 790 l 63 976 l 761 976 l 761 808 l 301 183 l 301 175 l 768 185 l 768 0 l 33 0 z "},"[":{"ha":475,"x_min":117,"x_max":449,"o":"m 449 -172 l 117 -172 l 117 1099 l 449 1099 l 449 939 l 317 942 l 317 -15 l 449 -14 l 449 -172 z "},"\\":{"ha":683,"x_min":0,"x_max":706,"o":"m 706 -136 l 504 -136 l 272 390 l 0 976 l 203 976 l 426 463 l 706 -136 z "},"]":{"ha":475,"x_min":26,"x_max":358,"o":"m 26 1099 l 358 1099 l 358 -172 l 26 -172 l 26 -14 l 158 -15 l 158 942 l 26 939 l 26 1099 z "},"^":{"ha":731,"x_min":50,"x_max":681,"o":"m 251 433 l 50 450 l 263 981 l 468 981 l 681 450 l 479 433 l 369 801 l 361 801 l 251 433 z "},"_":{"ha":792,"x_min":6,"x_max":786,"o":"m 6 -231 l 6 -94 l 786 -94 l 786 -231 l 6 -231 z "},"`":{"ha":868,"x_min":206,"x_max":656,"o":"m 206 978 l 242 1128 l 656 1013 l 629 897 l 206 978 z "},"a":{"ha":864,"x_min":71,"x_max":763,"o":"m 308 -18 q 138 53 206 -18 q 71 258 71 124 q 166 454 71 393 q 443 515 261 515 l 547 515 q 529 635 547 608 q 448 663 511 663 q 308 649 385 663 q 136 607 231 635 l 92 763 q 255 812 149 789 q 444 835 361 835 q 689 756 615 835 q 763 528 763 678 l 763 0 l 626 0 l 599 90 l 590 90 q 547 60 574 78 q 444 12 519 42 q 308 -18 369 -18 m 547 356 q 417 363 499 363 q 313 342 336 363 q 290 263 290 321 q 309 181 290 204 q 367 158 328 158 q 519 197 439 158 l 547 211 l 547 356 z "},"b":{"ha":867,"x_min":103,"x_max":800,"o":"m 103 1057 l 318 1057 l 318 814 q 497 835 419 835 q 800 419 800 835 q 772 202 800 292 q 694 67 743 113 q 469 -18 603 -18 q 291 0 399 -18 q 103 43 183 18 l 103 1057 m 546 639 q 479 658 526 658 q 318 640 393 658 l 318 169 q 449 156 390 156 q 529 172 508 156 q 578 443 578 213 q 546 639 578 608 z "},"c":{"ha":754,"x_min":67,"x_max":728,"o":"m 683 642 q 455 664 539 664 q 340 633 371 664 q 289 402 289 579 q 356 174 289 225 q 425 153 383 153 q 628 203 503 153 l 669 219 l 728 67 q 692 43 715 57 q 592 6 668 29 q 436 -18 515 -18 q 166 87 265 -18 q 67 411 67 192 q 189 750 67 656 q 472 835 297 835 q 707 804 592 835 l 683 642 z "},"d":{"ha":872,"x_min":67,"x_max":769,"o":"m 769 1057 l 769 0 l 631 0 l 608 79 l 600 79 q 340 -18 456 -18 q 145 88 224 -18 q 67 403 67 193 q 97 618 67 529 q 178 753 126 707 q 396 835 269 835 q 554 814 468 835 l 554 1057 l 769 1057 m 554 632 q 413 661 475 661 q 329 639 350 661 q 289 404 289 596 q 328 181 289 213 q 381 164 349 164 q 554 210 446 164 l 554 632 z "},"e":{"ha":839,"x_min":67,"x_max":779,"o":"m 444 -18 q 67 408 67 -18 q 442 835 67 835 q 694 745 610 835 q 779 449 779 656 l 779 333 l 290 333 q 333 179 290 217 q 415 153 363 153 q 663 197 513 153 l 711 213 l 764 57 q 608 5 701 28 q 444 -18 515 -18 m 535 635 q 435 665 510 665 q 328 629 360 665 q 292 489 296 593 l 560 494 q 535 635 557 604 z "},"f":{"ha":531,"x_min":39,"x_max":561,"o":"m 532 776 l 532 611 l 349 611 l 349 0 l 133 0 l 133 615 l 39 615 l 39 750 l 135 769 q 224 1007 147 939 q 435 1075 301 1075 l 561 1069 l 546 899 q 432 904 481 904 q 367 882 383 904 q 349 776 350 860 l 532 776 z "},"g":{"ha":785,"x_min":35,"x_max":769,"o":"m 718 524 q 623 323 718 403 q 363 242 528 243 q 360 213 360 217 q 374 203 360 208 q 429 183 388 197 q 684 63 626 114 q 742 -49 742 13 q 643 -197 742 -144 q 385 -249 544 -249 q 225 -237 308 -249 q 51 -201 142 -225 l 75 -37 q 438 -78 333 -78 q 543 -56 543 -78 q 306 43 543 -40 q 191 89 201 81 q 181 108 181 97 q 235 264 181 131 q 35 536 35 333 q 65 676 35 617 q 150 769 96 736 q 417 835 256 835 l 769 818 l 769 693 l 683 679 q 718 524 718 604 m 382 399 q 425 399 382 399 q 497 429 468 399 q 525 556 525 460 q 510 667 525 651 q 398 682 494 682 q 269 656 301 682 q 236 544 236 631 q 266 428 236 457 q 382 399 296 399 z "},"h":{"ha":871,"x_min":103,"x_max":779,"o":"m 103 0 l 103 1057 l 318 1057 l 318 765 q 575 838 463 838 q 733 758 688 838 q 779 535 779 678 l 779 0 l 564 0 l 564 497 q 544 625 564 600 q 494 650 525 650 q 318 600 440 650 l 318 0 l 103 0 z "},"i":{"ha":449,"x_min":103,"x_max":346,"o":"m 332 0 l 117 0 l 117 817 l 332 817 l 332 0 m 346 913 l 103 913 l 103 1057 l 346 1057 l 346 913 z "},"j":{"ha":481,"x_min":-53,"x_max":378,"o":"m 364 817 l 364 96 q 288 -167 364 -85 q 96 -249 213 -249 q -53 -235 44 -249 l -31 -60 q 86 -71 44 -71 q 138 -42 128 -71 q 149 97 149 -14 l 149 817 l 364 817 m 378 913 l 135 913 l 135 1057 l 378 1057 l 378 913 z "},"k":{"ha":833,"x_min":103,"x_max":876,"o":"m 318 1057 l 318 443 l 583 817 l 843 817 l 535 443 l 535 436 l 876 0 l 613 0 l 318 428 l 318 0 l 103 0 l 108 446 l 103 1057 l 318 1057 z "},"l":{"ha":421,"x_min":103,"x_max":318,"o":"m 318 0 l 103 0 l 103 1057 l 318 1057 l 318 0 z "},"m":{"ha":1328,"x_min":110,"x_max":1236,"o":"m 325 0 l 110 0 l 110 817 l 247 817 l 272 735 l 281 735 q 361 781 332 765 q 450 817 390 797 q 563 838 510 838 q 742 732 689 838 q 824 782 792 764 q 911 819 856 800 q 1018 838 967 838 q 1187 758 1138 838 q 1236 535 1236 678 l 1236 0 l 1018 0 l 1018 497 q 999 627 1018 604 q 940 650 981 650 q 776 590 864 650 q 779 521 779 546 l 779 0 l 564 0 l 564 497 q 546 628 564 606 q 490 650 528 650 q 406 633 453 650 q 325 592 358 615 l 325 0 z "},"n":{"ha":878,"x_min":110,"x_max":786,"o":"m 325 0 l 110 0 l 110 817 l 247 817 l 272 735 l 281 735 q 574 835 450 835 q 742 757 697 835 q 786 535 786 679 l 786 0 l 571 0 l 571 494 q 553 625 571 603 q 496 647 535 647 q 325 589 410 647 l 325 0 z "},"o":{"ha":850,"x_min":67,"x_max":783,"o":"m 149 726 q 191 780 149 726 q 426 835 232 835 q 702 726 621 835 q 783 408 783 618 q 702 90 783 199 q 426 -18 621 -18 q 149 91 232 -18 q 67 408 67 200 q 149 726 67 617 m 564 408 q 564 488 564 408 q 535 619 564 567 q 426 671 507 671 q 315 618 344 671 q 286 408 286 565 q 315 199 286 251 q 426 146 344 146 q 535 198 507 146 q 564 408 564 250 z "},"p":{"ha":875,"x_min":103,"x_max":808,"o":"m 318 -231 l 103 -231 l 103 817 l 240 817 l 265 733 l 272 733 q 537 835 417 835 q 733 733 657 835 q 808 422 808 631 q 656 33 808 132 q 465 -18 574 -18 q 318 -6 400 -18 l 318 -231 m 558 622 q 503 649 540 649 q 346 608 429 649 l 318 596 l 318 176 q 449 157 385 157 q 535 175 513 157 q 585 428 585 207 q 558 622 585 583 z "},"q":{"ha":867,"x_min":67,"x_max":764,"o":"m 764 -231 l 549 -231 l 549 13 q 404 -18 474 -18 q 292 -7 335 -18 q 206 35 249 4 q 133 114 164 67 q 67 434 67 222 q 152 740 67 646 q 413 835 238 835 q 711 796 547 835 l 764 783 l 764 -231 m 326 179 q 390 161 344 161 q 549 182 465 161 l 549 644 q 408 661 472 661 q 322 639 344 661 q 289 410 289 606 q 326 179 289 215 z "},"r":{"ha":597,"x_min":110,"x_max":592,"o":"m 316 759 q 327 768 316 759 q 398 806 339 776 q 509 835 457 835 q 592 819 561 835 l 575 633 q 499 638 536 638 q 325 588 406 638 l 325 0 l 110 0 l 110 817 l 243 817 l 271 731 l 279 731 q 316 759 293 742 z "},"s":{"ha":746,"x_min":58,"x_max":699,"o":"m 360 663 q 291 649 307 663 q 275 610 275 636 q 299 563 275 583 q 346 534 322 543 q 401 516 369 525 q 494 489 432 507 q 592 451 556 471 q 699 260 699 392 q 618 56 699 129 q 392 -18 538 -18 q 232 2 315 -18 q 103 42 149 22 l 58 63 l 111 232 q 400 157 288 157 q 464 172 443 157 q 485 228 485 188 q 476 264 485 253 q 463 281 468 275 q 446 294 457 288 q 427 303 435 300 q 404 313 419 307 q 381 321 389 318 q 353 329 372 324 q 309 342 333 335 q 272 354 285 350 q 223 372 260 358 q 172 397 186 386 q 131 427 157 407 q 94 469 106 447 q 65 592 65 531 q 142 770 65 706 q 370 835 218 835 q 664 788 522 835 l 632 621 q 360 663 472 663 z "},"t":{"ha":556,"x_min":32,"x_max":511,"o":"m 344 776 l 511 776 l 511 611 l 342 611 l 342 268 q 354 183 342 201 q 401 165 367 165 l 508 172 l 508 -3 q 358 -18 440 -18 q 182 42 238 -18 q 126 274 126 103 l 126 615 l 32 615 l 32 750 l 136 769 l 168 963 l 344 963 l 344 776 z "},"u":{"ha":878,"x_min":92,"x_max":768,"o":"m 553 817 l 768 817 l 768 0 l 631 0 l 604 85 l 596 85 q 513 37 546 54 q 424 1 479 19 q 319 -18 368 -18 q 141 61 190 -18 q 92 285 92 140 l 92 817 l 307 817 l 307 306 q 325 186 307 203 q 383 169 343 169 q 553 228 468 169 l 553 817 z "},"v":{"ha":754,"x_min":13,"x_max":743,"o":"m 743 817 l 506 0 l 250 0 l 13 817 l 236 817 l 374 183 l 382 183 l 519 817 l 743 817 z "},"w":{"ha":1117,"x_min":28,"x_max":1096,"o":"m 1096 817 l 935 0 l 663 0 l 567 549 l 558 549 l 463 0 l 190 0 l 28 817 l 244 817 l 329 158 l 338 158 l 433 704 l 692 704 l 789 158 l 797 158 l 879 817 l 1096 817 z "},"x":{"ha":808,"x_min":6,"x_max":792,"o":"m 526 429 l 792 0 l 550 0 l 403 301 l 394 301 l 247 0 l 6 0 l 271 429 l 18 817 l 254 817 l 394 549 l 403 549 l 543 817 l 779 817 l 526 429 z "},"y":{"ha":750,"x_min":-6,"x_max":751,"o":"m 163 -231 l 283 71 l -6 817 l 233 817 l 376 271 l 385 271 l 531 817 l 751 817 l 464 43 l 386 -231 l 163 -231 z "},"z":{"ha":703,"x_min":15,"x_max":675,"o":"m 15 0 l 15 144 l 404 647 l 404 654 l 35 643 l 35 817 l 665 817 l 665 672 l 281 168 l 281 160 l 675 174 l 675 0 l 15 0 z "},"{":{"ha":644,"x_min":47,"x_max":628,"o":"m 221 679 l 221 810 q 499 1099 221 1099 q 628 1090 569 1099 l 617 938 q 493 944 522 944 q 450 919 464 944 q 436 807 436 894 l 436 678 q 317 479 436 529 l 317 471 q 436 268 436 417 l 436 128 q 449 10 436 36 q 496 -17 461 -17 l 617 -11 l 628 -165 q 503 -171 575 -171 q 221 128 221 -171 l 221 272 q 189 367 221 344 q 47 404 157 389 l 47 547 q 188 585 154 561 q 221 679 221 608 z "},"|":{"ha":389,"x_min":113,"x_max":276,"o":"m 276 -131 l 113 -131 l 113 1075 l 276 1075 l 276 -131 z "},"}":{"ha":644,"x_min":17,"x_max":597,"o":"m 424 272 l 424 128 q 142 -171 424 -171 l 17 -165 l 28 -11 q 145 -17 107 -17 q 196 10 183 -17 q 208 128 208 36 l 208 268 q 328 471 208 417 l 328 479 q 208 678 208 529 l 208 807 q 194 919 208 894 q 143 944 181 944 l 28 938 l 17 1090 q 146 1099 65 1099 q 424 810 424 1099 l 424 679 q 457 585 424 608 q 597 547 490 561 l 597 404 q 456 367 488 389 q 424 272 424 344 z "},"~":{"ha":933,"x_min":100,"x_max":832,"o":"m 649 264 q 458 312 592 264 q 277 360 324 360 q 165 325 231 360 l 100 440 q 141 481 125 467 q 197 515 157 496 q 288 533 238 533 q 473 485 338 533 q 653 438 608 438 q 768 474 699 438 l 832 358 q 649 264 754 264 z "},"¡":{"ha":404,"x_min":81,"x_max":324,"o":"m 110 535 l 297 535 l 321 -158 l 88 -158 l 110 535 m 81 631 l 81 817 l 324 817 l 324 631 l 81 631 z "},"¢":{"ha":754,"x_min":67,"x_max":728,"o":"m 521 -161 l 349 -161 l 349 -10 q 67 405 67 43 q 349 824 67 767 l 349 963 l 521 963 l 521 833 q 707 804 608 829 l 683 642 q 456 664 539 664 q 340 635 372 664 q 289 406 289 588 q 356 174 289 225 q 425 153 383 153 q 628 203 503 153 l 669 219 l 728 67 q 521 -11 644 7 l 521 -161 z "},"£":{"ha":832,"x_min":69,"x_max":788,"o":"m 69 451 l 69 613 l 199 613 q 319 917 213 829 q 565 994 414 994 q 788 963 665 994 l 765 790 q 553 810 626 810 q 458 792 479 810 q 415 613 421 760 l 674 613 l 674 451 l 413 451 l 413 183 l 765 186 l 765 0 l 69 0 l 69 183 l 197 183 l 197 451 l 69 451 z "},"¤":{"ha":907,"x_min":74,"x_max":842,"o":"m 646 188 q 458 136 556 136 q 269 188 360 136 l 183 101 l 74 213 l 158 297 q 108 485 108 381 q 158 674 108 590 l 74 760 l 185 869 l 271 783 q 456 835 358 835 q 643 782 553 835 l 731 869 l 840 758 l 756 674 q 807 486 807 592 q 757 297 807 381 l 842 213 l 731 103 l 646 188 m 638 483 q 638 531 638 483 q 589 626 638 579 q 458 672 540 672 q 326 626 375 672 q 276 485 276 579 q 326 345 276 392 q 463 299 375 299 q 594 343 551 299 q 638 483 638 388 z "},"¥":{"ha":826,"x_min":4,"x_max":818,"o":"m 64 397 l 64 533 l 217 533 l 4 976 l 236 976 l 407 533 l 415 533 l 586 976 l 818 976 l 606 533 l 756 533 l 756 397 l 64 397 m 64 179 l 64 315 l 756 315 l 756 179 l 519 179 l 521 0 l 300 0 l 301 179 l 64 179 z "},"¦":{"ha":389,"x_min":113,"x_max":276,"o":"m 276 560 l 113 560 l 113 1075 l 276 1075 l 276 560 m 113 374 l 276 374 l 276 -131 l 113 -131 l 113 374 z "},"§":{"ha":811,"x_min":44,"x_max":751,"o":"m 532 639 q 693 564 635 610 q 751 425 751 518 q 664 271 751 332 q 704 144 704 219 q 675 17 704 69 q 597 -67 646 -36 q 372 -129 501 -129 q 217 -108 299 -129 q 89 -67 135 -87 l 44 -44 l 104 132 q 411 53 294 53 q 467 60 456 53 q 494 111 494 78 q 483 143 494 132 q 465 160 472 154 q 444 173 458 167 q 419 184 429 179 q 390 195 410 189 q 360 206 371 201 q 274 231 310 221 q 204 256 239 242 q 131 294 169 269 q 54 454 54 347 q 142 624 54 561 q 83 761 83 678 q 175 931 83 868 q 409 993 267 993 q 667 951 551 993 l 629 774 q 411 813 493 813 q 311 801 329 813 q 293 766 293 789 q 299 732 293 743 q 320 711 306 721 q 349 694 335 701 q 389 678 364 686 q 433 667 414 671 q 532 639 504 647 m 518 356 q 538 401 538 375 q 513 443 538 428 q 411 486 489 458 q 288 528 333 514 q 263 470 263 493 q 285 433 263 447 q 356 404 307 419 q 449 376 404 389 q 518 356 493 364 z "},"¨":{"ha":858,"x_min":157,"x_max":701,"o":"m 361 928 l 157 928 l 157 1078 l 361 1078 l 361 928 m 701 928 l 497 928 l 497 1078 l 701 1078 l 701 928 z "},"©":{"ha":1156,"x_min":69,"x_max":1086,"o":"m 576 -68 q 465 -68 576 -68 q 212 76 354 -68 q 69 443 69 221 q 216 811 69 665 q 581 957 363 957 q 942 813 799 957 q 1086 444 1086 668 q 942 76 1086 221 q 576 -68 799 -68 m 581 832 q 493 832 581 832 q 301 727 406 832 q 197 443 197 622 q 298 160 197 264 q 577 57 399 57 q 857 161 756 57 q 958 444 958 265 q 857 728 958 624 q 581 832 756 832 m 590 749 q 614 749 590 749 q 691 739 638 749 q 765 717 744 729 l 743 582 q 601 597 651 597 q 535 581 551 597 q 506 448 506 551 q 535 315 506 344 q 578 301 549 301 q 746 332 650 301 l 782 194 q 692 162 740 172 q 590 151 644 151 q 391 222 467 151 q 315 443 315 292 q 403 692 315 626 q 493 736 444 724 q 590 749 542 749 z "},"ª":{"ha":607,"x_min":38,"x_max":529,"o":"m 267 771 l 369 771 q 352 836 369 821 q 286 851 335 851 q 92 817 204 851 l 56 949 q 283 990 193 990 q 529 774 529 990 l 529 414 l 413 414 l 386 467 l 381 467 q 201 401 279 401 q 81 449 124 401 q 38 591 38 497 q 99 728 38 685 q 267 771 161 771 m 369 642 q 288 643 339 643 q 218 633 238 643 q 199 592 199 624 q 247 540 199 540 q 369 571 300 540 l 369 642 z "},"«":{"ha":813,"x_min":25,"x_max":789,"o":"m 408 196 l 249 103 l 25 479 l 249 856 l 408 763 l 236 483 l 236 475 l 408 196 m 789 201 l 631 108 l 410 479 l 631 850 l 789 757 l 621 483 l 621 475 l 789 201 z "},"¬":{"ha":835,"x_min":8,"x_max":803,"o":"m 803 165 l 613 165 l 613 314 l 8 314 l 8 499 l 803 499 l 803 165 z "},"­":{"ha":399,"x_min":24,"x_max":382,"o":"m 24 363 l 24 546 l 382 546 l 382 363 l 24 363 z "},"®":{"ha":1156,"x_min":69,"x_max":1086,"o":"m 576 -68 q 465 -68 576 -68 q 212 76 354 -68 q 69 443 69 221 q 216 811 69 665 q 581 957 363 957 q 942 813 799 957 q 1086 444 1086 668 q 942 76 1086 221 q 576 -68 799 -68 m 581 832 q 493 832 581 832 q 301 727 406 832 q 197 443 197 622 q 298 160 197 264 q 577 57 399 57 q 857 161 756 57 q 958 444 958 265 q 857 728 958 624 q 581 832 756 832 m 508 167 l 344 167 l 349 429 l 346 725 q 582 736 479 736 q 814 549 814 736 q 713 368 814 415 l 713 364 l 824 167 l 635 167 l 568 351 l 508 353 l 508 167 m 508 486 q 574 485 529 485 q 629 498 618 485 q 640 544 640 511 q 629 590 640 578 q 583 601 618 601 q 510 597 547 601 l 508 486 z "},"¯":{"ha":828,"x_min":171,"x_max":665,"o":"m 171 924 l 171 1057 l 665 1057 l 665 924 l 171 924 z "},"°":{"ha":489,"x_min":8,"x_max":481,"o":"m 8 778 q 8 839 8 778 q 76 956 8 899 q 244 1014 144 1014 q 412 956 343 1014 q 481 778 481 899 q 412 600 481 658 q 244 542 343 542 q 77 600 146 542 q 8 778 8 658 m 317 778 q 317 815 317 778 q 244 853 317 853 q 172 778 172 853 q 244 703 172 703 q 317 778 317 703 z "},"±":{"ha":825,"x_min":42,"x_max":783,"o":"m 42 183 l 783 183 l 783 0 l 42 0 l 42 183 m 506 258 l 319 258 l 319 456 l 42 456 l 42 639 l 319 639 l 319 817 l 506 817 l 506 639 l 783 639 l 783 456 l 506 456 l 506 258 z "},"²":{"ha":572,"x_min":57,"x_max":503,"o":"m 301 992 q 431 947 378 992 q 485 824 485 901 q 385 629 485 747 l 318 556 l 503 561 l 503 414 l 81 414 l 81 522 q 226 688 171 624 q 318 821 318 790 q 289 843 318 843 q 118 782 226 843 l 57 924 q 301 992 181 992 z "},"³":{"ha":533,"x_min":44,"x_max":469,"o":"m 264 553 q 294 592 294 553 q 246 640 294 640 l 131 640 l 131 764 q 276 790 260 774 q 283 815 283 797 q 278 839 283 833 q 229 844 272 844 q 89 832 186 844 l 72 974 q 246 992 181 992 q 453 829 453 992 q 443 774 453 797 q 424 740 433 750 q 396 719 414 731 l 396 714 q 469 593 469 678 q 269 403 469 403 q 44 442 172 403 l 82 582 q 264 553 204 553 z "},"´":{"ha":868,"x_min":213,"x_max":663,"o":"m 619 1133 l 663 978 l 243 897 l 213 1013 l 619 1133 z "},"µ":{"ha":878,"x_min":92,"x_max":768,"o":"m 511 36 q 497 28 511 36 q 428 1 482 19 q 340 -18 375 -18 q 271 -7 304 -18 l 264 -12 l 281 -231 l 92 -231 l 92 817 l 307 817 l 307 336 q 326 186 307 203 q 383 169 344 169 q 553 228 468 169 l 553 817 l 768 817 l 768 0 l 631 0 l 604 85 l 596 85 q 511 36 540 53 z "},"¶":{"ha":1021,"x_min":38,"x_max":915,"o":"m 915 -231 l 700 -231 l 700 792 l 569 792 l 569 -231 l 356 -231 l 356 239 q 118 334 199 249 q 38 615 38 419 q 130 893 38 810 q 403 976 222 976 l 915 976 l 915 -231 z "},"·":{"ha":490,"x_min":104,"x_max":386,"o":"m 145 566 q 166 582 145 566 q 246 599 186 599 q 346 566 306 599 q 386 461 386 533 q 345 354 386 389 q 246 319 304 319 q 146 354 188 319 q 104 461 104 389 q 145 566 104 533 z "},"¸":{"ha":681,"x_min":246,"x_max":535,"o":"m 504 56 q 535 -101 535 -36 q 490 -207 535 -165 q 367 -249 446 -249 q 246 -236 318 -249 l 246 -115 q 347 -122 308 -122 q 400 -115 386 -122 q 414 -78 414 -107 q 399 28 414 -49 l 504 56 z "},"¹":{"ha":564,"x_min":38,"x_max":511,"o":"m 90 414 l 90 561 l 228 561 l 228 807 l 222 807 l 119 732 l 38 851 l 263 990 l 393 981 l 393 561 l 511 561 l 511 414 l 90 414 z "},"º":{"ha":525,"x_min":1,"x_max":524,"o":"m 1 697 q 1 769 1 697 q 61 917 1 842 q 263 992 121 992 q 465 917 406 992 q 524 697 524 842 q 465 476 524 551 q 263 401 406 401 q 61 477 121 401 q 1 697 1 553 m 349 697 q 349 742 349 697 q 330 815 349 786 q 263 844 311 844 q 196 815 214 844 q 178 697 178 786 q 196 578 178 607 q 262 550 214 550 q 329 579 310 550 q 349 697 349 608 z "},"»":{"ha":813,"x_min":24,"x_max":788,"o":"m 564 103 l 404 196 l 576 475 l 576 483 l 404 763 l 564 856 l 788 479 l 564 103 m 182 108 l 24 201 l 192 475 l 192 483 l 24 757 l 182 850 l 403 479 l 182 108 z "},"¼":{"ha":1432,"x_min":38,"x_max":1369,"o":"m 576 -12 l 375 -12 l 693 564 l 913 1018 l 1113 1018 l 825 476 l 576 -12 m 872 104 l 872 224 l 1021 600 l 1169 585 l 1039 247 l 1149 249 l 1168 443 l 1308 443 l 1308 249 l 1369 250 l 1369 104 l 1308 104 l 1308 0 l 1146 0 l 1147 104 l 872 104 m 90 414 l 90 561 l 228 561 l 228 807 l 222 807 l 119 732 l 38 851 l 263 990 l 393 981 l 393 561 l 511 561 l 511 414 l 90 414 z "},"½":{"ha":1428,"x_min":38,"x_max":1354,"o":"m 572 -12 l 371 -12 l 689 564 l 908 1018 l 1108 1018 l 821 476 l 572 -12 m 90 414 l 90 561 l 228 561 l 228 807 l 222 807 l 119 732 l 38 851 l 263 990 l 393 981 l 393 561 l 511 561 l 511 414 l 90 414 m 1153 578 q 1283 533 1229 578 q 1336 410 1336 488 q 1236 215 1336 333 l 1169 142 l 1354 147 l 1354 0 l 932 0 l 932 108 q 1078 274 1022 210 q 1169 407 1169 376 q 1140 429 1169 429 q 969 368 1078 429 l 908 510 q 1153 578 1032 578 z "},"¾":{"ha":1324,"x_min":42,"x_max":1261,"o":"m 478 -12 l 276 -12 l 594 564 l 814 1018 l 1014 1018 l 726 476 l 478 -12 m 764 104 l 764 224 l 913 600 l 1061 585 l 931 247 l 1040 249 l 1060 443 l 1200 443 l 1200 249 l 1261 249 l 1261 104 l 1200 104 l 1200 0 l 1038 0 l 1039 104 l 764 104 m 261 553 q 292 592 292 553 q 243 640 292 640 l 128 640 l 128 764 q 274 790 257 774 q 281 815 281 797 q 275 839 281 833 q 226 844 269 844 q 86 832 183 844 l 69 974 q 243 992 178 992 q 450 829 450 992 q 440 774 450 797 q 421 740 431 750 q 393 719 411 731 l 393 714 q 467 593 467 678 q 267 403 467 403 q 42 442 169 403 l 79 582 q 261 553 201 553 z "},"¿":{"ha":685,"x_min":11,"x_max":672,"o":"m 517 536 l 517 510 q 460 339 517 400 q 408 290 429 307 q 344 243 388 272 q 233 97 233 168 q 260 35 233 54 q 336 15 286 15 q 561 58 428 15 l 606 74 l 672 -90 q 519 -150 615 -124 q 347 -176 424 -176 q 105 -99 199 -176 q 11 97 11 -22 q 75 267 11 200 q 184 358 129 322 q 257 410 239 394 q 294 458 275 425 q 318 536 314 492 l 517 536 m 294 632 l 294 818 l 538 818 l 538 632 l 294 632 z "},"À":{"ha":796,"x_min":-15,"x_max":804,"o":"m 206 0 l -15 0 l 264 976 l 525 976 l 804 0 l 583 0 l 528 217 l 261 217 l 206 0 m 486 400 l 399 776 l 390 776 l 303 400 l 486 400 m 171 1110 l 206 1263 l 621 1160 l 597 1044 l 171 1110 z "},"Á":{"ha":796,"x_min":-15,"x_max":804,"o":"m 206 0 l -15 0 l 264 976 l 525 976 l 804 0 l 583 0 l 528 217 l 261 217 l 206 0 m 486 400 l 399 776 l 390 776 l 303 400 l 486 400 m 597 1264 l 636 1111 l 217 1042 l 189 1157 l 597 1264 z "},"Â":{"ha":796,"x_min":-15,"x_max":804,"o":"m 206 0 l -15 0 l 264 976 l 525 976 l 804 0 l 583 0 l 528 217 l 261 217 l 206 0 m 486 400 l 399 776 l 390 776 l 303 400 l 486 400 m 678 1118 l 632 1033 l 400 1115 l 390 1115 l 158 1033 l 113 1118 l 344 1257 l 446 1257 l 678 1118 z "},"Ã":{"ha":796,"x_min":-15,"x_max":804,"o":"m 206 0 l -15 0 l 264 976 l 525 976 l 804 0 l 583 0 l 528 217 l 261 217 l 206 0 m 486 400 l 399 776 l 390 776 l 303 400 l 486 400 m 247 1231 q 406 1201 294 1231 q 528 1171 517 1171 q 551 1185 540 1171 q 574 1226 563 1199 l 678 1210 q 546 1036 674 1036 q 388 1067 500 1036 q 264 1099 275 1099 q 225 1056 243 1099 l 218 1042 l 113 1056 q 247 1231 117 1231 z "},"Ä":{"ha":796,"x_min":-15,"x_max":804,"o":"m 206 0 l -15 0 l 264 976 l 525 976 l 804 0 l 583 0 l 528 217 l 261 217 l 206 0 m 486 400 l 399 776 l 390 776 l 303 400 l 486 400 m 326 1064 l 122 1064 l 122 1214 l 326 1214 l 326 1064 m 667 1064 l 463 1064 l 463 1214 l 667 1214 l 667 1064 z "},"Å":{"ha":796,"x_min":-15,"x_max":804,"o":"m 206 0 l -15 0 l 264 976 l 525 976 l 804 0 l 583 0 l 528 217 l 261 217 l 206 0 m 486 400 l 399 776 l 390 776 l 303 400 l 486 400 m 396 1281 q 543 1149 543 1281 q 501 1049 543 1079 q 397 1018 460 1018 q 290 1049 333 1018 q 247 1149 247 1079 q 290 1250 247 1219 q 396 1281 332 1281 m 434 1182 q 429 1186 434 1182 q 396 1190 424 1190 q 357 1182 368 1190 q 346 1149 346 1174 q 358 1116 346 1125 q 396 1107 369 1107 q 433 1116 422 1107 q 444 1149 444 1125 q 434 1182 444 1174 z "},"Æ":{"ha":1179,"x_min":-24,"x_max":1115,"o":"m 529 0 l 529 217 l 292 217 l 197 0 l -24 0 l 418 976 l 1115 976 l 1115 788 l 746 792 l 740 586 l 1081 586 l 1081 403 l 740 403 l 746 183 l 1115 186 l 1115 0 l 529 0 m 529 400 l 529 763 l 504 763 l 349 400 l 529 400 z "},"Ç":{"ha":858,"x_min":69,"x_max":810,"o":"m 747 782 q 483 803 575 803 q 360 778 392 803 q 297 475 297 728 q 317 286 297 360 q 367 190 338 213 q 456 168 397 168 q 586 187 515 168 q 747 242 657 206 l 810 78 q 576 -7 713 17 q 588 -94 588 -49 q 543 -207 588 -165 q 419 -249 499 -249 q 299 -236 371 -249 l 299 -115 q 400 -122 361 -122 q 453 -115 439 -122 q 467 -78 467 -107 q 460 -18 467 -49 q 69 479 69 -15 q 147 844 69 724 q 238 935 183 901 q 352 982 293 969 q 476 994 411 994 q 630 984 542 994 q 771 960 718 974 l 747 782 z "},"È":{"ha":765,"x_min":115,"x_max":701,"o":"m 115 0 l 115 976 l 701 976 l 701 788 l 332 792 l 326 586 l 667 586 l 667 403 l 326 403 l 332 183 l 701 186 l 701 0 l 115 0 m 169 1110 l 204 1263 l 619 1160 l 596 1044 l 169 1110 z "},"É":{"ha":765,"x_min":115,"x_max":701,"o":"m 115 0 l 115 976 l 701 976 l 701 788 l 332 792 l 326 586 l 667 586 l 667 403 l 326 403 l 332 183 l 701 186 l 701 0 l 115 0 m 551 1264 l 590 1111 l 171 1042 l 143 1157 l 551 1264 z "},"Ê":{"ha":765,"x_min":108,"x_max":701,"o":"m 115 0 l 115 976 l 701 976 l 701 788 l 332 792 l 326 586 l 667 586 l 667 403 l 326 403 l 332 183 l 701 186 l 701 0 l 115 0 m 674 1118 l 628 1033 l 396 1115 l 386 1115 l 154 1033 l 108 1118 l 340 1257 l 442 1257 l 674 1118 z "},"Ë":{"ha":765,"x_min":115,"x_max":701,"o":"m 115 0 l 115 976 l 701 976 l 701 788 l 332 792 l 326 586 l 667 586 l 667 403 l 326 403 l 332 183 l 701 186 l 701 0 l 115 0 m 342 1064 l 138 1064 l 138 1214 l 342 1214 l 342 1064 m 682 1064 l 478 1064 l 478 1214 l 682 1214 l 682 1064 z "},"Ì":{"ha":450,"x_min":-29,"x_max":401,"o":"m -29 1110 l 7 1263 l 401 1158 l 376 1043 l -29 1110 m 331 542 l 335 0 l 115 0 l 121 450 l 115 976 l 335 976 l 331 542 z "},"Í":{"ha":450,"x_min":40,"x_max":471,"o":"m 435 1264 l 471 1111 l 65 1042 l 40 1157 l 435 1264 m 331 542 l 335 0 l 115 0 l 121 450 l 115 976 l 335 976 l 331 542 z "},"Î":{"ha":450,"x_min":-35,"x_max":482,"o":"m 482 1132 l 436 1042 l 229 1115 l 219 1115 l 11 1042 l -35 1132 l 174 1257 l 275 1257 l 482 1132 m 331 542 l 335 0 l 115 0 l 121 450 l 115 976 l 335 976 l 331 542 z "},"Ï":{"ha":450,"x_min":-26,"x_max":476,"o":"m 172 1064 l -26 1064 l -26 1214 l 172 1214 l 172 1064 m 476 1064 l 278 1064 l 278 1214 l 476 1214 l 476 1064 m 331 542 l 335 0 l 115 0 l 121 450 l 115 976 l 335 976 l 331 542 z "},"Ð":{"ha":953,"x_min":42,"x_max":883,"o":"m 42 415 l 42 576 l 133 576 l 133 975 q 474 994 369 994 q 652 967 579 994 q 768 897 725 940 q 839 786 811 853 q 883 500 883 675 q 774 103 883 224 q 465 -18 664 -18 q 133 0 371 -18 l 133 415 l 42 415 m 350 576 l 519 576 l 519 415 l 350 415 l 350 174 q 483 167 408 167 q 588 193 558 167 q 651 492 651 246 q 592 783 651 739 q 485 807 561 807 l 350 799 l 350 576 z "},"Ñ":{"ha":994,"x_min":115,"x_max":882,"o":"m 115 976 l 388 976 l 689 283 l 697 283 l 681 976 l 882 976 l 882 0 l 610 0 l 308 693 l 300 693 l 317 0 l 115 0 l 115 976 m 347 1231 q 506 1201 394 1231 q 628 1171 617 1171 q 651 1185 640 1171 q 674 1226 663 1199 l 778 1210 q 646 1036 774 1036 q 488 1067 600 1036 q 364 1099 375 1099 q 325 1056 343 1099 l 318 1042 l 213 1056 q 347 1231 217 1231 z "},"Ò":{"ha":972,"x_min":69,"x_max":903,"o":"m 648 4 q 613 -7 648 4 q 486 -18 578 -18 q 324 4 394 -18 q 194 81 254 26 q 69 490 69 192 q 242 935 69 826 q 486 994 335 994 q 822 844 724 994 q 903 490 903 722 q 778 81 903 192 q 648 4 718 26 m 376 781 q 357 769 376 781 q 317 690 338 758 q 296 488 296 621 q 317 286 296 356 q 377 195 339 217 q 486 174 415 174 q 594 196 557 174 q 676 488 676 243 q 597 781 676 735 q 486 803 558 803 q 376 781 414 803 m 278 1110 l 313 1263 l 728 1160 l 704 1044 l 278 1110 z "},"Ó":{"ha":972,"x_min":69,"x_max":903,"o":"m 648 4 q 613 -7 648 4 q 486 -18 578 -18 q 324 4 394 -18 q 194 81 254 26 q 69 490 69 192 q 242 935 69 826 q 486 994 335 994 q 822 844 724 994 q 903 490 903 722 q 778 81 903 192 q 648 4 718 26 m 376 781 q 357 769 376 781 q 317 690 338 758 q 296 488 296 621 q 317 286 296 356 q 377 195 339 217 q 486 174 415 174 q 594 196 557 174 q 676 488 676 243 q 597 781 676 735 q 486 803 558 803 q 376 781 414 803 m 656 1264 l 694 1111 l 275 1042 l 247 1157 l 656 1264 z "},"Ô":{"ha":972,"x_min":69,"x_max":903,"o":"m 648 4 q 613 -7 648 4 q 486 -18 578 -18 q 324 4 394 -18 q 194 81 254 26 q 69 490 69 192 q 242 935 69 826 q 486 994 335 994 q 822 844 724 994 q 903 490 903 722 q 778 81 903 192 q 648 4 718 26 m 376 781 q 357 769 376 781 q 317 690 338 758 q 296 488 296 621 q 317 286 296 356 q 377 195 339 217 q 486 174 415 174 q 594 196 557 174 q 676 488 676 243 q 597 781 676 735 q 486 803 558 803 q 376 781 414 803 m 768 1118 l 722 1033 l 490 1115 l 481 1115 l 249 1033 l 203 1118 l 435 1257 l 536 1257 l 768 1118 z "},"Õ":{"ha":972,"x_min":69,"x_max":903,"o":"m 648 4 q 613 -7 648 4 q 486 -18 578 -18 q 324 4 394 -18 q 194 81 254 26 q 69 490 69 192 q 242 935 69 826 q 486 994 335 994 q 822 844 724 994 q 903 490 903 722 q 778 81 903 192 q 648 4 718 26 m 376 781 q 357 769 376 781 q 317 690 338 758 q 296 488 296 621 q 317 286 296 356 q 377 195 339 217 q 486 174 415 174 q 594 196 557 174 q 676 488 676 243 q 597 781 676 735 q 486 803 558 803 q 376 781 414 803 m 338 1231 q 496 1201 385 1231 q 619 1171 607 1171 q 642 1185 631 1171 q 664 1226 653 1199 l 768 1210 q 636 1036 764 1036 q 477 1067 589 1036 q 354 1099 365 1099 q 314 1056 333 1099 l 308 1042 l 203 1056 q 338 1231 207 1231 z "},"Ö":{"ha":972,"x_min":69,"x_max":903,"o":"m 648 4 q 613 -7 648 4 q 486 -18 578 -18 q 324 4 394 -18 q 194 81 254 26 q 69 490 69 192 q 242 935 69 826 q 486 994 335 994 q 822 844 724 994 q 903 490 903 722 q 778 81 903 192 q 648 4 718 26 m 376 781 q 357 769 376 781 q 317 690 338 758 q 296 488 296 621 q 317 286 296 356 q 377 195 339 217 q 486 174 415 174 q 594 196 557 174 q 676 488 676 243 q 597 781 676 735 q 486 803 558 803 q 376 781 414 803 m 418 1064 l 214 1064 l 214 1214 l 418 1214 l 418 1064 m 758 1064 l 554 1064 l 554 1214 l 758 1214 l 758 1064 z "},"×":{"ha":821,"x_min":44,"x_max":776,"o":"m 772 169 l 643 42 l 410 275 l 175 40 l 46 169 l 281 404 l 44 639 l 174 768 l 410 532 l 647 771 l 776 642 l 538 404 l 772 169 z "},"Ø":{"ha":972,"x_min":69,"x_max":903,"o":"m 69 490 q 242 935 69 826 q 486 994 335 994 q 628 978 561 994 l 643 1013 l 804 1013 l 757 915 q 903 490 903 797 q 778 81 903 192 q 648 4 718 26 q 488 -18 578 -18 q 332 1 399 -18 l 307 -54 l 144 -54 l 204 69 q 69 490 69 193 m 414 181 q 499 174 440 174 q 594 196 557 174 q 676 488 676 243 q 654 697 676 629 l 539 456 l 414 181 m 376 781 q 357 769 376 781 q 317 690 338 758 q 296 492 296 621 q 313 294 296 364 l 413 499 l 547 799 q 467 803 521 803 q 376 781 414 803 z "},"Ù":{"ha":975,"x_min":115,"x_max":860,"o":"m 642 976 l 860 976 l 860 440 q 769 82 860 182 q 488 -18 678 -18 q 207 81 299 -18 q 115 429 115 179 l 115 976 l 333 976 l 333 465 q 348 272 333 335 q 393 190 363 210 q 488 172 424 171 q 583 191 553 172 q 627 271 613 210 q 642 465 642 332 l 642 976 m 276 1110 l 311 1263 l 726 1160 l 703 1044 l 276 1110 z "},"Ú":{"ha":975,"x_min":115,"x_max":860,"o":"m 642 976 l 860 976 l 860 440 q 769 82 860 182 q 488 -18 678 -18 q 207 81 299 -18 q 115 429 115 179 l 115 976 l 333 976 l 333 465 q 348 272 333 335 q 393 190 363 210 q 488 172 424 171 q 583 191 553 172 q 627 271 613 210 q 642 465 642 332 l 642 976 m 657 1264 l 696 1111 l 276 1042 l 249 1157 l 657 1264 z "},"Û":{"ha":975,"x_min":115,"x_max":860,"o":"m 642 976 l 860 976 l 860 440 q 769 82 860 182 q 488 -18 678 -18 q 207 81 299 -18 q 115 429 115 179 l 115 976 l 333 976 l 333 465 q 348 272 333 335 q 393 190 363 210 q 488 172 424 171 q 583 191 553 172 q 627 271 613 210 q 642 465 642 332 l 642 976 m 769 1118 l 724 1033 l 492 1115 l 482 1115 l 250 1033 l 204 1118 l 436 1257 l 538 1257 l 769 1118 z "},"Ü":{"ha":975,"x_min":115,"x_max":860,"o":"m 642 976 l 860 976 l 860 440 q 769 82 860 182 q 488 -18 678 -18 q 207 81 299 -18 q 115 429 115 179 l 115 976 l 333 976 l 333 465 q 348 272 333 335 q 393 190 363 210 q 488 172 424 171 q 583 191 553 172 q 627 271 613 210 q 642 465 642 332 l 642 976 m 419 1064 l 215 1064 l 215 1214 l 419 1214 l 419 1064 m 760 1064 l 556 1064 l 556 1214 l 760 1214 l 760 1064 z "},"Ý":{"ha":806,"x_min":-6,"x_max":808,"o":"m 290 0 l 294 351 l -6 976 l 226 976 l 397 529 l 406 529 l 576 976 l 808 976 l 508 351 l 511 0 l 290 0 m 579 1264 l 618 1111 l 199 1042 l 171 1157 l 579 1264 z "},"Þ":{"ha":876,"x_min":113,"x_max":819,"o":"m 331 976 l 331 861 q 496 867 442 867 q 735 780 651 867 q 819 524 819 693 q 707 236 819 318 q 464 167 610 167 l 331 171 l 331 0 l 113 0 l 118 508 l 113 976 l 331 976 m 563 671 q 467 690 543 690 q 331 683 390 690 l 331 360 q 469 350 397 350 q 567 374 540 350 q 594 520 594 397 q 563 671 594 643 z "},"ß":{"ha":932,"x_min":115,"x_max":846,"o":"m 332 0 l 115 0 l 115 632 q 144 799 115 726 q 224 913 174 871 q 462 994 322 994 q 703 924 601 994 q 804 714 804 853 q 770 592 804 644 q 692 518 736 540 l 692 510 q 846 282 846 451 q 818 139 846 200 q 743 44 790 78 q 535 -18 651 -18 l 431 -10 l 449 158 q 524 157 476 157 q 596 189 572 157 q 619 292 619 221 q 585 393 619 364 q 485 422 551 422 l 457 422 l 457 586 q 568 617 540 592 q 596 703 596 643 q 460 824 596 824 q 332 649 332 824 l 332 0 z "},"à":{"ha":864,"x_min":71,"x_max":763,"o":"m 308 -18 q 138 53 206 -18 q 71 258 71 124 q 166 454 71 393 q 443 515 261 515 l 547 515 q 529 635 547 608 q 448 663 511 663 q 308 649 385 663 q 136 607 231 635 l 92 763 q 255 812 149 789 q 444 835 361 835 q 689 756 615 835 q 763 528 763 678 l 763 0 l 626 0 l 599 90 l 590 90 q 547 60 574 78 q 444 12 519 42 q 308 -18 369 -18 m 547 356 q 417 363 499 363 q 313 342 336 363 q 290 263 290 321 q 309 181 290 204 q 367 158 328 158 q 519 197 439 158 l 547 211 l 547 356 m 200 978 l 236 1128 l 650 1013 l 624 897 l 200 978 z "},"á":{"ha":864,"x_min":71,"x_max":763,"o":"m 308 -18 q 138 53 206 -18 q 71 258 71 124 q 166 454 71 393 q 443 515 261 515 l 547 515 q 529 635 547 608 q 448 663 511 663 q 308 649 385 663 q 136 607 231 635 l 92 763 q 255 812 149 789 q 444 835 361 835 q 689 756 615 835 q 763 528 763 678 l 763 0 l 626 0 l 599 90 l 590 90 q 547 60 574 78 q 444 12 519 42 q 308 -18 369 -18 m 547 356 q 417 363 499 363 q 313 342 336 363 q 290 263 290 321 q 309 181 290 204 q 367 158 328 158 q 519 197 439 158 l 547 211 l 547 356 m 618 1133 l 661 978 l 242 897 l 211 1013 l 618 1133 z "},"â":{"ha":864,"x_min":71,"x_max":763,"o":"m 308 -18 q 138 53 206 -18 q 71 258 71 124 q 166 454 71 393 q 443 515 261 515 l 547 515 q 529 635 547 608 q 448 663 511 663 q 308 649 385 663 q 136 607 231 635 l 92 763 q 255 812 149 789 q 444 835 361 835 q 689 756 615 835 q 763 528 763 678 l 763 0 l 626 0 l 599 90 l 590 90 q 547 60 574 78 q 444 12 519 42 q 308 -18 369 -18 m 547 356 q 417 363 499 363 q 313 342 336 363 q 290 263 290 321 q 309 181 290 204 q 367 158 328 158 q 519 197 439 158 l 547 211 l 547 356 m 714 975 l 668 890 l 436 979 l 426 979 l 194 890 l 149 975 l 381 1121 l 482 1121 l 714 975 z "},"ã":{"ha":864,"x_min":71,"x_max":763,"o":"m 308 -18 q 138 53 206 -18 q 71 258 71 124 q 166 454 71 393 q 443 515 261 515 l 547 515 q 529 635 547 608 q 448 663 511 663 q 308 649 385 663 q 136 607 231 635 l 92 763 q 255 812 149 789 q 444 835 361 835 q 689 756 615 835 q 763 528 763 678 l 763 0 l 626 0 l 599 90 l 590 90 q 547 60 574 78 q 444 12 519 42 q 308 -18 369 -18 m 547 356 q 417 363 499 363 q 313 342 336 363 q 290 263 290 321 q 309 181 290 204 q 367 158 328 158 q 519 197 439 158 l 547 211 l 547 356 m 265 1108 q 424 1078 313 1108 q 547 1049 535 1049 q 569 1063 558 1049 q 592 1104 581 1076 l 696 1088 q 564 911 692 911 q 406 942 517 911 q 283 974 294 974 q 242 931 261 974 l 236 917 l 131 931 q 265 1108 135 1108 z "},"ä":{"ha":864,"x_min":71,"x_max":763,"o":"m 308 -18 q 138 53 206 -18 q 71 258 71 124 q 166 454 71 393 q 443 515 261 515 l 547 515 q 529 635 547 608 q 448 663 511 663 q 308 649 385 663 q 136 607 231 635 l 92 763 q 255 812 149 789 q 444 835 361 835 q 689 756 615 835 q 763 528 763 678 l 763 0 l 626 0 l 599 90 l 590 90 q 547 60 574 78 q 444 12 519 42 q 308 -18 369 -18 m 547 356 q 417 363 499 363 q 313 342 336 363 q 290 263 290 321 q 309 181 290 204 q 367 158 328 158 q 519 197 439 158 l 547 211 l 547 356 m 354 928 l 150 928 l 150 1078 l 354 1078 l 354 928 m 694 928 l 490 928 l 490 1078 l 694 1078 l 694 928 z "},"å":{"ha":864,"x_min":71,"x_max":763,"o":"m 308 -18 q 138 53 206 -18 q 71 258 71 124 q 166 454 71 393 q 443 515 261 515 l 547 515 q 529 635 547 608 q 448 663 511 663 q 308 649 385 663 q 136 607 231 635 l 92 763 q 255 812 149 789 q 444 835 361 835 q 689 756 615 835 q 763 528 763 678 l 763 0 l 626 0 l 599 90 l 590 90 q 547 60 574 78 q 444 12 519 42 q 308 -18 369 -18 m 547 356 q 417 363 499 363 q 313 342 336 363 q 290 263 290 321 q 309 181 290 204 q 367 158 328 158 q 519 197 439 158 l 547 211 l 547 356 m 431 1153 q 576 1018 576 1153 q 535 915 576 946 q 431 885 493 885 q 326 915 368 885 q 283 1019 283 946 q 326 1122 283 1092 q 431 1153 368 1153 m 475 1060 q 469 1066 475 1060 q 431 1071 463 1071 q 385 1060 399 1071 q 372 1019 372 1050 q 386 976 372 988 q 431 964 400 964 q 474 976 461 964 q 488 1019 488 988 q 475 1060 488 1050 z "},"æ":{"ha":1322,"x_min":78,"x_max":1263,"o":"m 321 -18 q 144 53 211 -18 q 78 258 78 124 q 174 452 78 393 q 450 511 269 511 l 554 511 q 536 636 554 614 q 456 663 518 663 q 315 649 393 663 q 143 607 238 635 l 99 763 q 263 812 157 789 q 458 835 369 835 q 682 767 606 835 l 688 767 q 936 835 779 835 q 1178 747 1093 835 q 1263 453 1263 658 l 1263 338 l 774 338 q 817 179 775 214 q 899 153 846 153 q 1146 197 996 153 l 1194 213 l 1247 57 q 1092 5 1185 28 q 928 -18 999 -18 q 633 106 724 -18 l 628 106 q 542 51 574 71 q 442 7 510 32 q 321 -18 375 -18 m 554 351 q 424 358 504 358 q 320 338 343 358 q 297 261 297 317 q 315 182 297 206 q 372 158 333 158 q 456 172 411 158 q 554 211 501 185 l 554 351 m 1018 635 q 918 665 993 665 q 811 629 843 665 q 775 493 779 593 l 1043 499 q 1018 635 1042 604 z "},"ç":{"ha":754,"x_min":67,"x_max":728,"o":"m 683 642 q 455 664 539 664 q 340 633 371 664 q 289 402 289 579 q 356 174 289 225 q 425 153 383 153 q 628 203 503 153 l 669 219 l 728 67 q 554 -6 661 18 q 565 -94 565 -56 q 521 -207 565 -165 q 397 -249 476 -249 q 276 -236 349 -249 l 276 -115 q 378 -122 339 -122 q 431 -115 417 -122 q 444 -78 444 -107 q 438 -18 444 -49 l 436 -18 q 166 87 265 -18 q 67 411 67 192 q 189 750 67 656 q 472 835 297 835 q 707 804 592 835 l 683 642 z "},"è":{"ha":839,"x_min":67,"x_max":779,"o":"m 444 -18 q 67 408 67 -18 q 442 835 67 835 q 694 745 610 835 q 779 449 779 656 l 779 333 l 290 333 q 333 179 290 217 q 415 153 363 153 q 663 197 513 153 l 711 213 l 764 57 q 608 5 701 28 q 444 -18 515 -18 m 535 635 q 435 665 510 665 q 328 629 360 665 q 292 489 296 593 l 560 494 q 535 635 557 604 m 206 978 l 242 1128 l 656 1013 l 629 897 l 206 978 z "},"é":{"ha":839,"x_min":67,"x_max":779,"o":"m 444 -18 q 67 408 67 -18 q 442 835 67 835 q 694 745 610 835 q 779 449 779 656 l 779 333 l 290 333 q 333 179 290 217 q 415 153 363 153 q 663 197 513 153 l 711 213 l 764 57 q 608 5 701 28 q 444 -18 515 -18 m 535 635 q 435 665 510 665 q 328 629 360 665 q 292 489 296 593 l 560 494 q 535 635 557 604 m 626 1133 l 669 978 l 250 897 l 219 1013 l 626 1133 z "},"ê":{"ha":839,"x_min":67,"x_max":779,"o":"m 444 -18 q 67 408 67 -18 q 442 835 67 835 q 694 745 610 835 q 779 449 779 656 l 779 333 l 290 333 q 333 179 290 217 q 415 153 363 153 q 663 197 513 153 l 711 213 l 764 57 q 608 5 701 28 q 444 -18 515 -18 m 535 635 q 435 665 510 665 q 328 629 360 665 q 292 489 296 593 l 560 494 q 535 635 557 604 m 721 975 l 675 890 l 443 979 l 433 979 l 201 890 l 156 975 l 388 1121 l 489 1121 l 721 975 z "},"ë":{"ha":839,"x_min":67,"x_max":779,"o":"m 444 -18 q 67 408 67 -18 q 442 835 67 835 q 694 745 610 835 q 779 449 779 656 l 779 333 l 290 333 q 333 179 290 217 q 415 153 363 153 q 663 197 513 153 l 711 213 l 764 57 q 608 5 701 28 q 444 -18 515 -18 m 535 635 q 435 665 510 665 q 328 629 360 665 q 292 489 296 593 l 560 494 q 535 635 557 604 m 360 928 l 156 928 l 156 1078 l 360 1078 l 360 928 m 700 928 l 496 928 l 496 1078 l 700 1078 l 700 928 z "},"ì":{"ha":449,"x_min":-19,"x_max":403,"o":"m -19 976 l 17 1126 l 403 1013 l 376 897 l -19 976 m 332 0 l 117 0 l 117 817 l 332 817 l 332 0 z "},"í":{"ha":449,"x_min":31,"x_max":453,"o":"m 410 1133 l 453 978 l 61 897 l 31 1013 l 410 1133 m 332 0 l 117 0 l 117 817 l 332 817 l 332 0 z "},"î":{"ha":449,"x_min":-31,"x_max":479,"o":"m 479 981 l 433 894 l 229 979 l 219 979 l 15 894 l -31 981 l 174 1121 l 275 1121 l 479 981 m 332 0 l 117 0 l 117 817 l 332 817 l 332 0 z "},"ï":{"ha":449,"x_min":-21,"x_max":468,"o":"m 183 928 l -21 928 l -21 1078 l 183 1078 l 183 928 m 468 928 l 264 928 l 264 1078 l 468 1078 l 468 928 m 332 0 l 117 0 l 117 817 l 332 817 l 332 0 z "},"ð":{"ha":868,"x_min":75,"x_max":792,"o":"m 406 725 q 608 668 521 725 l 617 672 q 521 825 590 747 l 340 763 l 329 888 l 424 921 l 351 979 l 475 1075 q 604 988 547 1036 l 739 1036 l 749 906 l 690 885 q 792 440 792 733 q 709 100 792 218 q 435 -18 626 -18 q 160 85 244 -18 q 75 353 75 188 q 156 622 75 518 q 406 725 236 725 m 543 516 q 528 539 543 516 q 435 561 514 561 q 325 515 356 561 q 294 353 294 469 q 324 191 294 236 q 434 146 354 146 q 543 191 514 146 q 572 353 572 236 q 543 516 572 471 z "},"ñ":{"ha":878,"x_min":110,"x_max":786,"o":"m 325 0 l 110 0 l 110 817 l 247 817 l 272 735 l 281 735 q 574 835 450 835 q 742 757 697 835 q 786 535 786 679 l 786 0 l 571 0 l 571 494 q 553 625 571 603 q 496 647 535 647 q 325 589 410 647 l 325 0 m 311 1094 q 469 1065 358 1094 q 592 1035 581 1035 q 615 1049 604 1035 q 638 1090 626 1063 l 742 1074 q 610 897 738 897 q 451 928 564 897 q 328 960 339 960 q 289 917 307 960 l 282 903 l 176 917 q 311 1094 181 1094 z "},"ò":{"ha":850,"x_min":67,"x_max":783,"o":"m 149 726 q 191 780 149 726 q 426 835 232 835 q 702 726 621 835 q 783 408 783 618 q 702 90 783 199 q 426 -18 621 -18 q 149 91 232 -18 q 67 408 67 200 q 149 726 67 617 m 564 408 q 564 488 564 408 q 535 619 564 567 q 426 671 507 671 q 315 618 344 671 q 286 408 286 565 q 315 199 286 251 q 426 146 344 146 q 535 198 507 146 q 564 408 564 250 m 194 978 l 231 1128 l 644 1013 l 618 897 l 194 978 z "},"ó":{"ha":850,"x_min":67,"x_max":783,"o":"m 149 726 q 191 780 149 726 q 426 835 232 835 q 702 726 621 835 q 783 408 783 618 q 702 90 783 199 q 426 -18 621 -18 q 149 91 232 -18 q 67 408 67 200 q 149 726 67 617 m 564 408 q 564 488 564 408 q 535 619 564 567 q 426 671 507 671 q 315 618 344 671 q 286 408 286 565 q 315 199 286 251 q 426 146 344 146 q 535 198 507 146 q 564 408 564 250 m 614 1133 l 657 978 l 238 897 l 207 1013 l 614 1133 z "},"ô":{"ha":850,"x_min":67,"x_max":783,"o":"m 149 726 q 191 780 149 726 q 426 835 232 835 q 702 726 621 835 q 783 408 783 618 q 702 90 783 199 q 426 -18 621 -18 q 149 91 232 -18 q 67 408 67 200 q 149 726 67 617 m 564 408 q 564 488 564 408 q 535 619 564 567 q 426 671 507 671 q 315 618 344 671 q 286 408 286 565 q 315 199 286 251 q 426 146 344 146 q 535 198 507 146 q 564 408 564 250 m 711 975 l 665 890 l 433 979 l 424 979 l 192 890 l 146 975 l 378 1121 l 479 1121 l 711 975 z "},"õ":{"ha":850,"x_min":67,"x_max":783,"o":"m 149 726 q 191 780 149 726 q 426 835 232 835 q 702 726 621 835 q 783 408 783 618 q 702 90 783 199 q 426 -18 621 -18 q 149 91 232 -18 q 67 408 67 200 q 149 726 67 617 m 564 408 q 564 488 564 408 q 535 619 564 567 q 426 671 507 671 q 315 618 344 671 q 286 408 286 565 q 315 199 286 251 q 426 146 344 146 q 535 198 507 146 q 564 408 564 250 m 282 1108 q 440 1078 329 1108 q 563 1049 551 1049 q 586 1063 575 1049 q 608 1104 597 1076 l 713 1088 q 581 911 708 911 q 422 942 533 911 q 300 974 311 974 q 258 931 278 974 l 253 917 l 147 931 q 282 1108 151 1108 z "},"ö":{"ha":850,"x_min":67,"x_max":783,"o":"m 149 726 q 191 780 149 726 q 426 835 232 835 q 702 726 621 835 q 783 408 783 618 q 702 90 783 199 q 426 -18 621 -18 q 149 91 232 -18 q 67 408 67 200 q 149 726 67 617 m 564 408 q 564 488 564 408 q 535 619 564 567 q 426 671 507 671 q 315 618 344 671 q 286 408 286 565 q 315 199 286 251 q 426 146 344 146 q 535 198 507 146 q 564 408 564 250 m 360 928 l 156 928 l 156 1078 l 360 1078 l 360 928 m 700 928 l 496 928 l 496 1078 l 700 1078 l 700 928 z "},"÷":{"ha":899,"x_min":42,"x_max":857,"o":"m 42 315 l 42 500 l 857 500 l 857 315 l 42 315 m 325 0 l 325 186 l 568 186 l 568 0 l 325 0 m 325 631 l 325 817 l 568 817 l 568 631 l 325 631 z "},"ø":{"ha":850,"x_min":67,"x_max":783,"o":"m 426 835 q 554 819 496 835 l 578 872 l 722 872 l 668 761 q 783 408 783 661 q 702 90 783 199 q 426 -18 621 -18 q 308 -4 367 -18 l 286 -54 l 140 -54 l 190 50 q 67 408 67 147 q 149 726 67 617 q 426 835 232 835 m 426 671 q 315 618 344 671 q 286 441 286 565 q 294 263 286 317 l 389 454 l 483 663 q 426 671 458 671 m 426 146 q 535 198 507 146 q 564 408 564 250 q 557 533 564 478 l 499 411 l 379 150 q 426 146 393 146 z "},"ù":{"ha":878,"x_min":92,"x_max":768,"o":"m 553 817 l 768 817 l 768 0 l 631 0 l 604 85 l 596 85 q 513 37 546 54 q 424 1 479 19 q 319 -18 368 -18 q 141 61 190 -18 q 92 285 92 140 l 92 817 l 307 817 l 307 306 q 325 186 307 203 q 383 169 343 169 q 553 228 468 169 l 553 817 m 176 978 l 213 1128 l 626 1013 l 600 897 l 176 978 z "},"ú":{"ha":878,"x_min":92,"x_max":768,"o":"m 553 817 l 768 817 l 768 0 l 631 0 l 604 85 l 596 85 q 513 37 546 54 q 424 1 479 19 q 319 -18 368 -18 q 141 61 190 -18 q 92 285 92 140 l 92 817 l 307 817 l 307 306 q 325 186 307 203 q 383 169 343 169 q 553 228 468 169 l 553 817 m 638 1133 l 681 978 l 261 897 l 231 1013 l 638 1133 z "},"û":{"ha":878,"x_min":92,"x_max":768,"o":"m 553 817 l 768 817 l 768 0 l 631 0 l 604 85 l 596 85 q 513 37 546 54 q 424 1 479 19 q 319 -18 368 -18 q 141 61 190 -18 q 92 285 92 140 l 92 817 l 307 817 l 307 306 q 325 186 307 203 q 383 169 343 169 q 553 228 468 169 l 553 817 m 717 975 l 671 890 l 439 979 l 429 979 l 197 890 l 151 975 l 383 1121 l 485 1121 l 717 975 z "},"ü":{"ha":878,"x_min":92,"x_max":768,"o":"m 553 817 l 768 817 l 768 0 l 631 0 l 604 85 l 596 85 q 513 37 546 54 q 424 1 479 19 q 319 -18 368 -18 q 141 61 190 -18 q 92 285 92 140 l 92 817 l 307 817 l 307 306 q 325 186 307 203 q 383 169 343 169 q 553 228 468 169 l 553 817 m 361 928 l 157 928 l 157 1078 l 361 1078 l 361 928 m 701 928 l 497 928 l 497 1078 l 701 1078 l 701 928 z "},"ý":{"ha":750,"x_min":-6,"x_max":751,"o":"m 163 -231 l 283 71 l -6 817 l 233 817 l 376 271 l 385 271 l 531 817 l 751 817 l 464 43 l 386 -231 l 163 -231 m 597 1133 l 640 978 l 221 897 l 190 1013 l 597 1133 z "},"þ":{"ha":874,"x_min":110,"x_max":807,"o":"m 554 640 q 486 658 533 658 q 325 640 400 658 l 325 169 q 454 156 392 156 q 536 172 517 156 q 585 412 585 213 q 554 640 585 611 m 110 -231 l 110 1057 l 325 1057 l 325 814 q 496 835 432 835 q 807 421 807 835 q 468 -18 807 -18 q 325 -4 418 -18 l 325 -231 l 110 -231 z "},"ÿ":{"ha":750,"x_min":-6,"x_max":751,"o":"m 163 -231 l 283 71 l -6 817 l 233 817 l 376 271 l 385 271 l 531 817 l 751 817 l 464 43 l 386 -231 l 163 -231 m 311 928 l 107 928 l 107 1078 l 311 1078 l 311 928 m 651 928 l 447 928 l 447 1078 l 651 1078 l 651 928 z "},"ħ":{"ha":883,"x_min":-8,"x_max":786,"o":"m -8 879 l -8 1015 l 104 1015 l 104 1057 l 322 1057 l 322 1015 l 586 1015 l 586 879 l 322 879 l 322 765 q 574 838 467 838 q 744 750 699 838 q 786 535 786 674 l 786 0 l 579 0 l 579 497 q 556 629 579 597 q 507 650 539 650 q 322 600 450 650 l 322 0 l 104 0 l 104 879 l -8 879 z "},"Ĩ":{"ha":450,"x_min":-28,"x_max":476,"o":"m 89 1231 q 226 1201 129 1231 q 333 1171 322 1171 q 367 1213 353 1171 l 372 1226 l 476 1210 q 361 1036 472 1036 q 226 1067 322 1036 q 119 1099 129 1099 q 78 1042 100 1099 l -28 1056 q 89 1231 -24 1231 m 331 542 l 335 0 l 115 0 l 121 450 l 115 976 l 335 976 l 331 542 z "},"ĩ":{"ha":449,"x_min":-24,"x_max":472,"o":"m 111 1108 q 230 1078 150 1108 q 322 1049 310 1049 q 363 1090 346 1049 l 368 1104 l 472 1088 q 340 911 468 911 q 222 942 303 911 q 129 974 142 974 q 89 931 107 974 l 82 917 l -24 931 q 111 1108 -19 1108 m 332 0 l 117 0 l 117 817 l 332 817 l 332 0 z "},"ı":{"ha":449,"x_min":117,"x_max":332,"o":"m 332 0 l 117 0 l 117 817 l 332 817 l 332 0 z "},"Ĳ":{"ha":965,"x_min":115,"x_max":850,"o":"m 331 542 l 335 0 l 115 0 l 121 450 l 115 976 l 335 976 l 331 542 m 850 976 l 850 343 q 565 -18 850 -18 q 432 -4 510 -18 l 453 181 q 554 168 515 168 q 606 178 593 168 q 632 340 632 200 l 632 976 l 850 976 z "},"ĳ":{"ha":910,"x_min":103,"x_max":807,"o":"m 335 0 l 119 0 l 119 817 l 335 817 l 335 0 m 793 808 l 793 96 q 717 -168 793 -87 q 515 -249 642 -249 l 376 -235 l 399 -60 q 515 -71 474 -71 q 567 -42 557 -71 q 578 97 578 -14 l 578 808 l 793 808 m 346 913 l 103 913 l 103 1057 l 346 1057 l 346 913 m 807 913 l 564 913 l 564 1057 l 807 1057 l 807 913 z "},"Ĵ":{"ha":504,"x_min":-29,"x_max":525,"o":"m 525 1132 l 479 1042 l 272 1115 l 263 1115 l 54 1042 l 8 1132 l 217 1257 l 318 1257 l 525 1132 m 389 976 l 389 343 q 104 -18 389 -18 q -29 -4 49 -18 l -8 181 q 93 168 54 168 q 144 178 132 168 q 171 340 171 200 l 171 976 l 389 976 z "},"ĵ":{"ha":481,"x_min":-53,"x_max":504,"o":"m 504 981 l 458 894 l 254 979 l 244 979 l 40 894 l -6 981 l 199 1121 l 300 1121 l 504 981 m 364 817 l 364 96 q 288 -167 364 -85 q 96 -249 213 -249 q -53 -235 44 -249 l -31 -60 q 86 -71 44 -71 q 138 -42 128 -71 q 149 97 149 -14 l 149 817 l 364 817 z "},"ķ":{"ha":825,"x_min":94,"x_max":868,"o":"m 338 -189 l 338 -76 l 518 -76 l 518 -122 q 392 -410 518 -311 l 299 -365 q 338 -189 338 -304 m 310 1057 l 310 443 l 575 817 l 835 817 l 526 443 l 526 436 l 868 0 l 604 0 l 310 428 l 310 0 l 94 0 l 100 446 l 94 1057 l 310 1057 z "},"ĸ":{"ha":840,"x_min":110,"x_max":883,"o":"m 325 0 l 110 0 l 115 446 l 110 817 l 253 817 l 325 661 l 325 443 l 590 817 l 850 817 l 542 443 l 542 436 l 883 0 l 619 0 l 325 428 l 325 0 z "},"Ŀ":{"ha":671,"x_min":115,"x_max":686,"o":"m 115 0 l 115 976 l 333 976 l 326 188 l 686 190 l 686 0 l 115 0 m 451 486 l 451 672 l 686 672 l 686 486 l 451 486 z "},"ŀ":{"ha":654,"x_min":94,"x_max":650,"o":"m 310 0 l 94 0 l 94 1057 l 310 1057 l 310 0 m 424 472 l 424 672 l 650 672 l 650 472 l 424 472 z "},"Ł":{"ha":674,"x_min":19,"x_max":689,"o":"m 118 976 l 336 976 l 333 626 l 538 743 l 538 592 l 332 475 l 329 188 l 689 190 l 689 0 l 118 0 l 118 356 l 19 300 l 19 450 l 118 506 l 118 976 z "},"ł":{"ha":507,"x_min":10,"x_max":497,"o":"m 146 1057 l 361 1057 l 361 707 l 497 790 l 497 631 l 361 549 l 361 0 l 146 0 l 146 419 l 10 338 l 10 496 l 146 578 l 146 1057 z "},"Ń":{"ha":994,"x_min":115,"x_max":882,"o":"m 115 976 l 388 976 l 689 283 l 697 283 l 681 976 l 882 976 l 882 0 l 610 0 l 308 693 l 300 693 l 317 0 l 115 0 l 115 976 m 694 1264 l 733 1111 l 314 1042 l 286 1157 l 694 1264 z "},"ń":{"ha":878,"x_min":110,"x_max":786,"o":"m 325 0 l 110 0 l 110 817 l 247 817 l 272 735 l 281 735 q 574 835 450 835 q 742 757 697 835 q 786 535 786 679 l 786 0 l 571 0 l 571 494 q 553 625 571 603 q 496 647 535 647 q 325 589 410 647 l 325 0 m 681 1133 l 724 978 l 304 897 l 274 1013 l 681 1133 z "},"Œ":{"ha":1347,"x_min":69,"x_max":1283,"o":"m 697 0 l 697 35 l 692 35 q 495 -18 596 -18 q 324 4 394 -18 q 194 81 254 26 q 69 490 69 192 q 242 935 69 826 q 486 994 335 994 q 692 943 597 994 l 697 943 l 697 976 l 1283 976 l 1283 788 l 914 792 l 908 586 l 1249 586 l 1249 403 l 908 403 l 914 183 l 1283 186 l 1283 0 l 697 0 m 376 781 q 357 769 376 781 q 317 690 338 758 q 296 488 296 621 q 317 286 296 356 q 377 195 339 217 q 486 174 415 174 q 594 196 557 174 q 676 488 676 243 q 597 781 676 735 q 486 803 558 803 q 376 781 414 803 z "},"œ":{"ha":1342,"x_min":67,"x_max":1282,"o":"m 947 -18 q 685 69 778 -18 l 679 69 q 426 -18 594 -18 q 149 91 232 -18 q 67 408 67 200 q 149 726 67 617 q 426 835 232 835 q 679 747 592 835 l 685 747 q 945 835 778 835 q 1197 745 1113 835 q 1282 449 1282 656 l 1282 333 l 793 333 l 793 328 q 836 179 797 213 q 918 153 865 153 q 1165 197 1015 153 l 1214 213 l 1267 57 q 1111 5 1204 28 q 947 -18 1018 -18 m 564 408 q 564 488 564 408 q 535 619 564 567 q 426 671 507 671 q 315 618 344 671 q 286 408 286 565 q 315 199 286 251 q 426 146 344 146 q 535 198 507 146 q 564 408 564 250 m 1038 635 q 938 665 1013 665 q 831 629 863 665 q 794 489 799 593 l 1063 494 q 1038 635 1060 604 z "},"Ŕ":{"ha":965,"x_min":115,"x_max":890,"o":"m 851 669 q 653 378 851 449 l 653 369 l 890 0 l 638 0 l 458 347 l 333 350 l 333 0 l 115 0 l 121 453 l 115 975 q 485 994 446 994 q 851 669 851 994 m 333 531 q 499 521 428 521 q 599 555 571 521 q 626 685 626 589 q 592 804 626 782 q 481 821 567 821 q 333 813 396 821 l 333 531 m 651 1264 l 690 1111 l 271 1042 l 243 1157 l 651 1264 z "},"Ŗ":{"ha":965,"x_min":115,"x_max":890,"o":"m 375 -189 l 375 -76 l 556 -76 l 556 -122 q 429 -410 556 -311 l 336 -365 q 375 -189 375 -304 m 851 669 q 653 378 851 449 l 653 369 l 890 0 l 638 0 l 458 347 l 333 350 l 333 0 l 115 0 l 121 453 l 115 975 q 485 994 446 994 q 851 669 851 994 m 333 531 q 499 521 428 521 q 599 555 571 521 q 626 685 626 589 q 592 804 626 782 q 481 821 567 821 q 333 813 396 821 l 333 531 z "},"ŗ":{"ha":597,"x_min":86,"x_max":592,"o":"m 125 -189 l 125 -76 l 306 -76 l 306 -122 q 179 -410 306 -311 l 86 -365 q 125 -189 125 -304 m 316 759 q 327 768 316 759 q 398 806 339 776 q 509 835 457 835 q 592 819 561 835 l 575 633 q 499 638 536 638 q 325 588 406 638 l 325 0 l 110 0 l 110 817 l 243 817 l 271 731 l 279 731 q 316 759 293 742 z "},"Ř":{"ha":965,"x_min":115,"x_max":890,"o":"m 851 669 q 653 378 851 449 l 653 369 l 890 0 l 638 0 l 458 347 l 333 350 l 333 0 l 115 0 l 121 453 l 115 975 q 485 994 446 994 q 851 669 851 994 m 333 531 q 499 521 428 521 q 599 555 571 521 q 626 685 626 589 q 592 804 626 782 q 481 821 567 821 q 333 813 396 821 l 333 531 m 171 1186 l 217 1271 l 449 1189 l 458 1189 l 690 1271 l 736 1186 l 504 1047 l 403 1047 l 171 1186 z "},"ř":{"ha":597,"x_min":54,"x_max":619,"o":"m 54 1060 l 100 1144 l 332 1056 l 342 1056 l 574 1144 l 619 1060 l 388 914 l 286 914 l 54 1060 m 316 759 q 327 768 316 759 q 398 806 339 776 q 509 835 457 835 q 592 819 561 835 l 575 633 q 499 638 536 638 q 325 588 406 638 l 325 0 l 110 0 l 110 817 l 243 817 l 271 731 l 279 731 q 316 759 293 742 z "},"ȷ":{"ha":481,"x_min":-53,"x_max":364,"o":"m 364 817 l 364 96 q 288 -167 364 -85 q 96 -249 213 -249 q -53 -235 44 -249 l -31 -60 q 86 -71 44 -71 q 138 -42 128 -71 q 149 97 149 -14 l 149 817 l 364 817 z "},"ˆ":{"ha":793,"x_min":115,"x_max":681,"o":"m 681 975 l 635 890 l 403 979 l 393 979 l 161 890 l 115 975 l 347 1121 l 449 1121 l 681 975 z "},"ˇ":{"ha":265,"x_min":-149,"x_max":417,"o":"m -149 1060 l -103 1144 l 129 1056 l 139 1056 l 371 1144 l 417 1060 l 185 914 l 83 914 l -149 1060 z "},"˚":{"ha":219,"x_min":-39,"x_max":254,"o":"m 108 1153 q 254 1018 254 1153 q 213 915 254 946 q 108 885 171 885 q 3 915 46 885 q -39 1019 -39 946 q 3 1122 -39 1092 q 108 1153 46 1153 m 153 1060 q 147 1066 153 1060 q 108 1071 140 1071 q 63 1060 76 1071 q 50 1019 50 1050 q 64 976 50 988 q 108 964 78 964 q 152 976 139 964 q 165 1019 165 988 q 153 1060 165 1050 z "},"˜":{"ha":768,"x_min":101,"x_max":667,"o":"m 236 1108 q 394 1078 283 1108 q 517 1049 506 1049 q 540 1063 529 1049 q 563 1104 551 1076 l 667 1088 q 535 911 663 911 q 376 942 489 911 q 253 974 264 974 q 214 931 232 974 l 207 917 l 101 931 q 236 1108 106 1108 z "},"̇":{"ha":339,"x_min":67,"x_max":271,"o":"m 271 928 l 67 928 l 67 1078 l 271 1078 l 271 928 z "},"–":{"ha":825,"x_min":39,"x_max":786,"o":"m 786 546 l 786 363 l 39 363 l 40 546 l 786 546 z "},"—":{"ha":1169,"x_min":67,"x_max":1103,"o":"m 67 363 l 67 546 l 1103 546 l 1103 363 l 67 363 z "},"‘":{"ha":326,"x_min":61,"x_max":275,"o":"m 61 722 q 167 1036 61 921 l 275 972 q 242 789 242 906 l 250 618 l 68 618 q 61 722 61 672 z "},"’":{"ha":326,"x_min":61,"x_max":275,"o":"m 275 913 q 169 599 275 714 l 61 663 q 94 846 94 729 l 86 1017 l 268 1017 q 275 913 275 963 z "},"‚":{"ha":332,"x_min":61,"x_max":271,"o":"m 271 79 q 242 -109 271 -29 q 168 -232 213 -189 l 61 -168 q 94 13 94 -106 l 86 183 l 264 183 q 271 79 271 129 z "},"“":{"ha":633,"x_min":51,"x_max":581,"o":"m 368 717 q 481 1015 368 897 l 581 961 q 549 783 549 901 l 557 619 l 374 619 q 368 717 368 667 m 51 724 q 82 913 51 831 q 154 1040 113 994 l 265 982 q 232 790 232 915 l 240 619 l 58 619 q 51 724 51 674 z "},"”":{"ha":633,"x_min":53,"x_max":582,"o":"m 265 919 q 153 621 265 739 l 53 675 q 85 853 85 735 l 76 1017 l 260 1017 q 265 919 265 969 m 582 913 q 551 724 582 806 q 479 596 521 642 l 368 654 q 401 846 401 721 l 393 1017 l 575 1017 q 582 913 582 963 z "},"„":{"ha":686,"x_min":56,"x_max":585,"o":"m 265 79 q 235 -108 265 -28 q 161 -232 206 -189 l 56 -172 q 89 8 89 -110 l 81 183 l 258 183 q 265 79 265 129 m 585 74 q 556 -115 585 -35 q 482 -237 526 -194 l 375 -174 q 408 7 408 -111 l 401 183 l 579 183 q 585 74 585 124 z "},"•":{"ha":564,"x_min":67,"x_max":497,"o":"m 67 574 q 67 631 67 574 q 129 740 67 688 q 283 792 192 792 q 435 739 374 792 q 497 573 497 686 q 436 406 497 460 q 283 353 375 353 q 129 406 192 353 q 67 574 67 460 z "},"‹":{"ha":433,"x_min":25,"x_max":410,"o":"m 410 206 l 246 108 l 25 479 l 246 850 l 410 753 l 239 483 l 239 475 l 410 206 z "},"›":{"ha":433,"x_min":24,"x_max":408,"o":"m 188 108 l 24 206 l 194 475 l 194 483 l 24 753 l 188 850 l 408 479 l 188 108 z "},"€":{"ha":858,"x_min":33,"x_max":836,"o":"m 33 314 l 33 450 l 725 450 l 725 314 l 354 314 q 408 193 372 217 q 506 168 440 168 q 785 208 626 168 l 836 50 q 797 31 822 43 q 685 1 771 19 q 507 -18 600 -18 q 126 314 186 -18 l 33 314 m 33 540 l 33 676 l 128 676 q 275 933 164 863 q 531 994 375 994 q 673 984 585 994 q 814 960 761 974 l 790 783 q 532 803 631 803 q 401 777 433 803 q 354 676 369 751 l 725 676 l 725 540 l 33 540 z "}}}
